<svg clip-rule="evenodd" fill-rule="evenodd" image-rendering="optimizeQuality" shape-rendering="geometricPrecision" text-rendering="geometricPrecision" viewBox="0 0 3.89467 3.89467" xmlns="http://www.w3.org/2000/svg"><g id="&#x56FE;&#x5C42;_x0020_1"><circle cx="1.947" cy="1.947" fill="none" r="1.947"/><g id="_182602928"><path id="_166054504" d="m1.63675 1.95088h1.06878v.28788h-1.06878c-.03942 0-.07539.01624-.10153.04239-.02615.02615-.04239.06211-.04239.10154s.01624.07539.04239.10154c.02614.02615.06211.04239.10153.04239h1.06021c.07927 0 .14393.06484.14393.14393v.00002c0 .07909-.06484.14393-.14393.14393h-1.06021c-.11889 0-.22689-.04854-.30507-.12673-.07819-.07819-.12673-.18618-.12673-.30508s.04854-.22689.12673-.30508c.07818-.07819.18618-.12673.30507-.12673z" fill="#0cf" fill-rule="nonzero"/><path id="_166054984" d="m1.28618 1.08277h1.75785c.06361 0 .12975.05383.11563.11563l-.2115.92494c-.01413.06185-.05217.11563-.11563.11563h-1.46175c-.06355 0-.10985-.05228-.11563-.11563l-.0846-.92494c-.00578-.06335.05203-.11563.11563-.11563z" fill="#0cf"/><path id="_166054648" d="m.90229.98855c.28071.08364.47939.33405.49675.6265" fill="none"/><g fill="#0cf"><path id="_182603864" d="m.86125 1.1263c-.07607-.02266-.11937-.10272-.09671-.17879s.10272-.11937.17879-.09671c.16923.05042.31377.15116.41858.28335.10486.13224.17003.29603.1805.47247.00465.07918-.05576.14715-.13494.1518s-.14715-.05576-.1518-.13494c-.00688-.11594-.04972-.22359-.11866-.31053-.06903-.08707-.16426-.15343-.27576-.18665z" fill-rule="nonzero"/><circle id="_166054696" cx="1.64" cy="3.048" r=".146"/><circle id="_166054816" cx="2.406" cy="3.048" r=".146"/></g></g></g></svg>