<svg clip-rule="evenodd" fill-rule="evenodd" image-rendering="optimizeQuality" shape-rendering="geometricPrecision" text-rendering="geometricPrecision" viewBox="0 0 254000 254000" xmlns="http://www.w3.org/2000/svg"><g id="&#x56FE;&#x5C42;_x0020_1"><path d="m37253 0h179494c20518 0 37253 16735 37253 37253v179494c0 20518-16735 37253-37253 37253h-179494c-20518 0-37253-16735-37253-37253v-179494c0-20518 16735-37253 37253-37253z" fill="none"/><g id="_228994384" fill="#178feb"><path id="_228994432" d="m187366 143887h33v57158c0 2248-1834 4082-4082 4082h-36923c-2248 0-4082-1834-4082-4082v-31078c0-2248-1833-4082-4081-4082h-22457c-2248 0-4082 1834-4082 4082v31078c0 2248-1833 4082-4081 4082h-36923c-2248 0-4082-1834-4082-4082v-57158h-3l30109-30620 27199-27659c797-810 1775-1221 2912-1221 1135 0 2113 411 2910 1221l27199 27659z"/><path id="_228994528" d="m132839 51312 42150 42865 34314 34897c2355 2396 3006 5781 1707 8880-1300 3099-4169 5008-7530 5008h-204c-2273 0-4229-819-5822-2441l-34149-34729-30727-31250c-1594-1620-3549-2441-5822-2441s-4228 821-5822 2441l-30730 31250c-11381 11576-22766 23154-34147 34729-112 115-223 214-332 298-1421 1253-3286 2013-5329 2013-4452 0-8064-3611-8064-8065 0-2459 1102-4661 2840-6141l33873-34449 42150-42865c1594-1621 3549-2441 5823-2441 2272 0 4228 821 5821 2441z"/></g></g></svg>