<svg id="Layer_1" enable-background="new 0 0 64 64" height="512" viewBox="0 0 64 64" width="512" xmlns="http://www.w3.org/2000/svg"><path d="m32 3c-16 0-29 13-29 29s13 29 29 29 29-13 29-29-13-29-29-29zm-14.6 8.7c4.2-3 9.4-4.7 14.6-4.7.5 0 1 .5 1 1s-.5 1-1 1c-4.8 0-9.5 1.5-13.4 4.3-.2.1-.9.5-1.4-.2-.3-.5-.2-1.1.2-1.4zm-5.9 7.9c-.5-.3-.6-.9-.3-1.4.6-1.1 1.4-2 2.3-2.9.4-.4 1-.4 1.4 0s.4 1 0 1.4c-.7.7-1.4 1.6-2 2.5-.2.3-.8.7-1.4.4zm14.5 29.7-12.2-13.9 10.9 5.7c1 .5 2.1.3 2.9-.5l21.8-21.7zm26.3-2.7c-3.9 5.4-9.6 9-16.1 10.1-.1 0-1 .2-1.2-.8-.1-.5.3-1.1.8-1.2 6-1 11.3-4.3 14.9-9.3.3-.5 1-.5 1.4-.2s.5.9.2 1.4z"/></svg>