<svg clip-rule="evenodd" fill-rule="evenodd" image-rendering="optimizeQuality" shape-rendering="geometricPrecision" text-rendering="geometricPrecision" viewBox="0 0 254000 254000" xmlns="http://www.w3.org/2000/svg"><g id="&#x56FE;&#x5C42;_x0020_1"><path d="m127000 254000c-70129 0-127000-56871-127000-127000s56871-127000 127000-127000 127000 56871 127000 127000-56871 127000-127000 127000zm0-211666c10996 0 20987 4493 28227 11732s11733 17231 11733 28227v20742h12047c5974 0 10863 4889 10863 10863v86907c0 5974-4889 10861-10863 10861h-104014c-5974 0-10863-4887-10863-10861v-86907c0-5974 4889-10863 10863-10863h12047v-20742c0-10996 4493-20988 11733-28227s17231-11732 28227-11732zm27147 60701v-20742c0-7459-3056-14245-7980-19168-4923-4923-11707-7980-19167-7980s-14244 3057-19167 7980c-4924 4923-7980 11709-7980 19168v20742zm-17440 42560 27-60c552-1281 857-2694 857-4178 0-5848-4744-10591-10591-10591s-10591 4743-10591 10591c0 1484 306 2896 857 4178l27 60c835 1906 2214 3521 3942 4645-9 123-13 247-13 373v13543 460 13543c0 3177 2600 5777 5778 5777 3178 0 5778-2600 5778-5777v-13543-460-13543c0-126-4-250-13-373 1728-1124 3107-2738 3942-4645z" fill="#178feb"/></g></svg>