<svg height="512" viewBox="0 0 96 96" width="512" xmlns="http://www.w3.org/2000/svg"><g><path d="m88 32h-37a2.9941 2.9941 0 0 0 -2.0556-2.8331c-.2444-2.7762-1.6367-5.1669-7.9444-5.1669-4 0-4-.958-4-4.99a1 1 0 0 0 -2 0c0 3.905 0 6.99 6 6.99 5.061 0 5.8174 1.5658 5.9543 3.1985a2.9966 2.9966 0 0 0 -1.9543 2.8015h-37a4.0042 4.0042 0 0 0 -4 4v36a4.0042 4.0042 0 0 0 4 4h80a4.0042 4.0042 0 0 0 4-4c-.0043-3.291.0031-17.4331 0-21v-15a4.0042 4.0042 0 0 0 -4-4zm-31 34v-6h6v6zm-8 0v-6h6v6zm-8 0v-6h6v6zm-8 0v-6h6v6zm-8 0v-6h6v6zm-19 0v-6h9v6zm19-22v6h-6v-6zm8 0v6h-6v-6zm8 0v6h-6v-6zm8 0v6h-6v-6zm8 0v6h-6v-6zm8 0v6h-6v-6zm8 0v6h-6v-6zm17 0v6h-15v-6zm-17 22v-6h7v6zm-10-8v-6h6v6zm-8 0v-6h6v6zm-8 0v-6h6v6zm-8 0v-6h6v6zm-8 0v-6h6v6zm-8 0v-6h6v6zm-17 0v-6h15v6zm74 0h-9v-6h9zm-63-8h-11v-6h11zm0 10h6v6h-6zm12 8v6h-7v-6zm36-8h6v6h-6zm9 8v6h-7v-6zm2 0h6v6h-6zm6-2v-14h8v14zm-34-35a1.0009 1.0009 0 0 1 1 1h-2a1.0009 1.0009 0 0 1 1-1zm-40 3h80a2.0023 2.0023 0 0 1 2 2v6h-84v-6a2.0023 2.0023 0 0 1 2-2zm-2 38v-4h14v6h-12a2.0023 2.0023 0 0 1 -2-2zm25 2v-6h34v6zm57 0h-4v-6h6v4a2.0023 2.0023 0 0 1 -2 2z"/><path d="m83.5 39a1.5 1.5 0 0 0 0-3 1.5 1.5 0 0 0 0 3z"/><path d="m78.5 39a1.5 1.5 0 0 0 0-3 1.5 1.5 0 0 0 0 3z"/><path d="m73.5 39a1.5 1.5 0 0 0 0-3 1.5 1.5 0 0 0 0 3z"/><path d="m11 39h9a1 1 0 0 0 0-2h-9a1 1 0 0 0 0 2z"/></g></svg>