<?xml version="1.0" encoding="iso-8859-1"?>
<!-- Generator: Adobe Illustrator 19.0.0, SVG Export Plug-In . SVG Version: 6.00 Build 0)  -->
<svg version="1.1" id="Capa_1" xmlns="http://www.w3.org/2000/svg" xmlns:xlink="http://www.w3.org/1999/xlink" x="0px" y="0px"
	 viewBox="0 0 512.001 512.001" style="enable-background:new 0 0 512.001 512.001;" xml:space="preserve">
<path style="fill:#399AEA;" d="M490.353,378.267H18.598c-6.141,0-11.119-4.978-11.119-11.119v-37.19H504.52V364.1
	C504.52,371.924,498.177,378.267,490.353,378.267z"/>
<path style="fill:#61AFF6;" d="M490.353,378.267h-130.11V182.308h82.451c4.295,0,8.412,1.72,11.43,4.776l45.76,46.325
	c2.97,3.007,4.636,7.064,4.636,11.291v119.4C504.52,371.924,498.177,378.267,490.353,378.267z"/>
<path style="fill:#399AEA;" d="M499.884,233.409l-45.76-46.325c-3.018-3.056-7.135-4.776-11.43-4.776H387.26
	c4.295,0,8.412,1.72,11.43,4.776l45.76,46.325c2.97,3.007,4.636,7.064,4.636,11.291v133.568h41.267
	c7.824,0,14.167-6.343,14.167-14.167V244.699C504.52,240.473,502.854,236.416,499.884,233.409z"/>
<path style="fill:#33D8DD;" d="M387.8,279.444v-60.886c0-3.665,2.971-6.635,6.635-6.635h40.686c1.774,0,3.474,0.71,4.721,1.972
	l35.207,35.642c1.227,1.242,1.915,2.917,1.915,4.663v25.244c0,3.665-2.971,6.635-6.635,6.635h-75.893
	C390.77,286.079,387.8,283.109,387.8,279.444z"/>
<circle style="fill:#3D6687;" cx="429.1" cy="373.5" r="43.546"/>
<circle style="fill:#CCCBCA;" cx="429.1" cy="373.5" r="16.824"/>
<path style="fill:#FFC06C;" d="M7.479,350.599h352.764V102.894c0-4.388-3.557-7.944-7.944-7.944H15.423
	c-4.388,0-7.944,3.557-7.944,7.944C7.479,102.894,7.479,350.599,7.479,350.599z"/>
<path style="fill:#EDA558;" d="M352.299,94.949H304.81v255.65h55.434V102.894C360.243,98.506,356.686,94.949,352.299,94.949z"/>
<circle style="fill:#3D6687;" cx="94.57" cy="373.5" r="43.546"/>
<circle style="fill:#CCCBCA;" cx="94.57" cy="373.5" r="16.824"/>
<path style="fill:#FF4C4C;" d="M217.395,186.3H146.58c-3.299,0-5.973-2.674-5.973-5.973V94.949h82.761v85.378
	C223.368,183.626,220.694,186.3,217.395,186.3z"/>
<path d="M320.812,274.447c4.13,0,7.478-3.348,7.478-7.478c0-4.131-3.348-7.478-7.478-7.478h-31.977c-4.13,0-7.478,3.348-7.478,7.478
	c0,4.131,3.348,7.478,7.478,7.478H320.812z"/>
<path d="M242.372,274.447h11.665c4.13,0,7.478-3.348,7.478-7.478c0-4.131-3.348-7.478-7.478-7.478h-11.665
	c-4.13,0-7.478,3.348-7.478,7.478S238.242,274.447,242.372,274.447z"/>
<path d="M242.372,317.655h78.44c4.13,0,7.478-3.348,7.478-7.478s-3.348-7.478-7.478-7.478h-78.44c-4.13,0-7.478,3.348-7.478,7.478
	S238.242,317.655,242.372,317.655z"/>
<path d="M429.104,349.202c-13.401,0-24.303,10.902-24.303,24.303s10.902,24.303,24.303,24.303c13.4,0,24.302-10.902,24.302-24.303
	S442.504,349.202,429.104,349.202z M429.104,382.851c-5.154,0-9.346-4.193-9.346-9.346s4.192-9.346,9.346-9.346
	c5.153,0,9.346,4.193,9.346,9.346C438.45,378.658,434.257,382.851,429.104,382.851z"/>
<path d="M94.571,349.202c-13.4,0-24.302,10.902-24.302,24.303s10.902,24.303,24.302,24.303c13.401,0,24.303-10.902,24.303-24.303
	S107.972,349.202,94.571,349.202z M94.571,382.851c-5.153,0-9.346-4.193-9.346-9.346s4.192-9.346,9.346-9.346
	s9.346,4.193,9.346,9.346C103.917,378.658,99.725,382.851,94.571,382.851z"/>
<path d="M445.161,208.64c-2.634-2.666-6.294-4.195-10.04-4.195h-40.686c-7.783,0-14.114,6.331-14.114,14.115v60.885
	c0,7.782,6.331,14.114,14.114,14.114h75.893c7.782,0,14.114-6.331,14.114-14.114v-25.244c0-3.735-1.446-7.257-4.072-9.919
	L445.161,208.64z M469.485,278.601h-74.207v-59.199h39.491l34.716,35.145V278.601z"/>
<path d="M511.999,364.069V244.7c0-6.235-2.413-12.111-6.794-16.546l-45.76-46.325c-4.393-4.447-10.498-6.998-16.75-6.998h-74.972
	v-71.937c0-8.504-6.919-15.422-15.423-15.422H223.368h-82.761H15.423C6.919,87.471,0,94.389,0,102.893v19.742
	c0,4.131,3.348,7.478,7.478,7.478s7.478-3.348,7.478-7.478v-19.742c0-0.257,0.209-0.465,0.466-0.465h117.705v77.899
	c0,7.417,6.034,13.451,13.452,13.451h70.815c7.417,0,13.451-6.034,13.451-13.451v-77.899h121.453c0.257,0,0.466,0.208,0.466,0.465
	v79.415V343.12h-217.2c-7.471-10.107-18.226-16.955-30.324-19.511c-0.243-0.052-0.486-0.103-0.731-0.152
	c-0.569-0.112-1.141-0.215-1.716-0.307c-0.4-0.065-0.803-0.122-1.206-0.177c-0.476-0.065-0.951-0.13-1.43-0.182
	c-0.55-0.06-1.104-0.103-1.659-0.146c-0.365-0.028-0.727-0.064-1.094-0.083c-0.938-0.052-1.882-0.083-2.833-0.083
	s-1.895,0.031-2.833,0.083c-0.366,0.02-0.728,0.056-1.093,0.083c-0.555,0.043-1.11,0.086-1.66,0.146
	c-0.478,0.052-0.953,0.117-1.428,0.182c-0.404,0.056-0.808,0.113-1.209,0.178c-0.574,0.092-1.144,0.195-1.713,0.307
	c-0.246,0.049-0.49,0.1-0.735,0.152c-12.097,2.557-22.851,9.404-30.321,19.51H14.957V158.033c0-4.131-3.348-7.478-7.478-7.478
	S0,153.902,0,158.033V350.6v16.548c0,10.255,8.343,18.598,18.598,18.598h26.444c5.499,22.241,25.614,38.784,49.53,38.784
	s44.032-16.543,49.531-38.784h216.141h19.33c5.499,22.241,25.615,38.784,49.531,38.784c23.916,0,44.032-16.543,49.53-38.784h11.719
	c11.917,0,21.615-9.682,21.644-21.592c0-0.018,0.003-0.037,0.003-0.055C512,364.089,511.999,364.079,511.999,364.069z
	 M215.889,178.821h-67.804v-76.394h67.804V178.821z M45.903,358.177c-0.299,0.948-0.569,1.908-0.813,2.879
	c-0.045,0.178-0.081,0.359-0.124,0.538c-0.189,0.789-0.361,1.583-0.513,2.385c-0.051,0.271-0.099,0.542-0.146,0.813
	c-0.128,0.74-0.239,1.485-0.334,2.236c-0.034,0.264-0.071,0.528-0.101,0.793c-0.102,0.92-0.184,1.846-0.236,2.779
	c-0.004,0.063-0.013,0.125-0.016,0.188H18.598c-2.007,0-3.641-1.633-3.641-3.641v-9.07H45.93
	C45.92,358.111,45.913,358.144,45.903,358.177z M130.42,377.445c-1.97,18.04-17.293,32.127-35.849,32.127
	c-18.555,0-33.878-14.086-35.848-32.126c-0.146-1.34-0.22-2.666-0.22-3.942c0-0.758,0.031-1.513,0.079-2.266
	c0.013-0.204,0.03-0.406,0.046-0.608c0.048-0.598,0.109-1.193,0.186-1.786c0.022-0.168,0.04-0.336,0.064-0.503
	c0.108-0.75,0.236-1.496,0.391-2.236c0.017-0.083,0.039-0.164,0.057-0.246c0.14-0.649,0.302-1.293,0.478-1.932
	c0.054-0.195,0.109-0.389,0.166-0.582c0.175-0.596,0.366-1.187,0.571-1.773c0.045-0.128,0.085-0.259,0.131-0.387
	c0.24-0.66,0.505-1.311,0.784-1.957c0.106-0.246,0.219-0.488,0.331-0.731c0.194-0.423,0.398-0.842,0.608-1.258
	c0.133-0.263,0.264-0.527,0.403-0.786c0.305-0.567,0.625-1.127,0.961-1.679c0.191-0.314,0.394-0.62,0.595-0.927
	c0.16-0.246,0.322-0.492,0.487-0.733c0.244-0.354,0.492-0.705,0.747-1.05c0.089-0.12,0.181-0.238,0.271-0.357
	c5.148-6.764,12.625-11.661,21.226-13.484c0.083-0.017,0.165-0.039,0.249-0.056c0.358-0.073,0.721-0.131,1.083-0.194
	c0.348-0.059,0.696-0.119,1.047-0.168c0.305-0.043,0.612-0.082,0.92-0.117c0.441-0.051,0.885-0.093,1.33-0.127
	c0.246-0.019,0.491-0.042,0.738-0.056c0.703-0.041,1.408-0.067,2.119-0.067c0.71,0,1.416,0.027,2.119,0.067
	c0.247,0.014,0.492,0.037,0.738,0.056c0.445,0.035,0.888,0.076,1.33,0.127c0.308,0.036,0.615,0.074,0.92,0.117
	c0.351,0.049,0.698,0.108,1.046,0.168c0.362,0.062,0.725,0.121,1.083,0.194c0.082,0.017,0.163,0.038,0.245,0.056
	c8.606,1.823,16.086,6.723,21.235,13.492c0.087,0.115,0.177,0.229,0.263,0.346c0.258,0.348,0.507,0.701,0.753,1.058
	c0.163,0.238,0.322,0.48,0.48,0.722c0.203,0.31,0.407,0.619,0.601,0.936c0.336,0.551,0.655,1.11,0.96,1.676
	c0.14,0.26,0.271,0.525,0.405,0.789c0.21,0.415,0.413,0.832,0.606,1.254c0.112,0.244,0.226,0.487,0.332,0.734
	c0.278,0.645,0.543,1.296,0.783,1.955c0.047,0.129,0.087,0.261,0.132,0.39c0.205,0.585,0.395,1.175,0.57,1.77
	c0.057,0.194,0.112,0.389,0.166,0.584c0.176,0.639,0.337,1.282,0.477,1.93c0.018,0.083,0.04,0.164,0.057,0.247
	c0.155,0.74,0.283,1.486,0.391,2.236c0.024,0.167,0.042,0.336,0.064,0.504c0.077,0.592,0.138,1.187,0.186,1.783
	c0.016,0.203,0.034,0.406,0.046,0.61c0.047,0.753,0.079,1.507,0.079,2.265C130.639,374.78,130.566,376.105,130.42,377.445z
	 M352.765,370.789H145.524c-0.003-0.063-0.012-0.125-0.016-0.188c-0.053-0.934-0.134-1.859-0.236-2.779
	c-0.03-0.265-0.067-0.528-0.101-0.793c-0.096-0.751-0.206-1.496-0.334-2.236c-0.047-0.271-0.094-0.543-0.146-0.813
	c-0.152-0.802-0.324-1.597-0.513-2.385c-0.043-0.179-0.08-0.359-0.124-0.538c-0.244-0.97-0.514-1.931-0.813-2.878
	c-0.01-0.033-0.018-0.067-0.028-0.1h209.552V370.789z M464.952,377.447c-1.971,18.04-17.293,32.126-35.848,32.126
	c-18.556,0-33.879-14.087-35.849-32.127c-0.146-1.339-0.22-2.665-0.22-3.941c0-19.888,16.18-36.068,36.068-36.068
	s36.068,16.18,36.068,36.068C465.172,374.78,465.098,376.107,464.952,377.447z M497.042,364.1c0,3.689-3.001,6.689-6.689,6.689
	h-10.296c-0.04-0.758-0.102-1.51-0.174-2.258c-0.008-0.079-0.01-0.16-0.018-0.24c-0.086-0.844-0.194-1.682-0.32-2.513
	c-0.036-0.24-0.086-0.475-0.126-0.713c-0.099-0.589-0.197-1.179-0.315-1.761c-0.06-0.292-0.133-0.579-0.198-0.87
	c-0.116-0.522-0.229-1.046-0.361-1.562c-0.08-0.313-0.173-0.619-0.259-0.93c-0.134-0.487-0.266-0.975-0.414-1.456
	c-0.099-0.32-0.21-0.634-0.315-0.951c-0.153-0.464-0.304-0.929-0.47-1.388c-0.116-0.319-0.243-0.631-0.365-0.947
	c-0.173-0.449-0.344-0.899-0.53-1.341c-0.132-0.315-0.274-0.624-0.413-0.936c-0.192-0.434-0.383-0.868-0.586-1.295
	c-0.148-0.311-0.306-0.617-0.461-0.925c-0.21-0.418-0.419-0.837-0.64-1.249c-0.164-0.306-0.337-0.607-0.508-0.909
	c-0.227-0.404-0.455-0.807-0.693-1.203c-0.179-0.299-0.366-0.593-0.552-0.888c-0.245-0.39-0.491-0.78-0.746-1.162
	c-0.193-0.29-0.393-0.576-0.593-0.862c-0.262-0.376-0.525-0.751-0.796-1.119c-0.208-0.282-0.422-0.56-0.635-0.838
	c-0.278-0.361-0.557-0.72-0.844-1.073c-0.222-0.273-0.448-0.542-0.676-0.811c-0.293-0.346-0.588-0.689-0.89-1.027
	c-0.236-0.264-0.475-0.524-0.716-0.783c-0.307-0.33-0.617-0.657-0.933-0.979c-0.249-0.253-0.5-0.503-0.754-0.751
	c-0.321-0.315-0.646-0.625-0.976-0.931c-0.261-0.243-0.525-0.482-0.792-0.719c-0.334-0.298-0.673-0.59-1.015-0.879
	c-0.274-0.231-0.549-0.46-0.828-0.686c-0.347-0.281-0.699-0.556-1.053-0.828c-0.285-0.219-0.572-0.436-0.862-0.649
	c-0.36-0.264-0.725-0.522-1.092-0.777c-0.296-0.206-0.593-0.41-0.893-0.61c-0.372-0.247-0.75-0.487-1.129-0.724
	c-0.307-0.192-0.613-0.384-0.924-0.57c-0.383-0.229-0.772-0.45-1.162-0.669c-0.317-0.178-0.633-0.357-0.954-0.529
	c-0.395-0.211-0.795-0.413-1.196-0.614c-0.326-0.163-0.65-0.328-0.98-0.484c-0.406-0.193-0.817-0.374-1.229-0.556
	c-0.334-0.148-0.667-0.298-1.005-0.439c-0.416-0.173-0.838-0.335-1.26-0.498c-0.342-0.132-0.683-0.267-1.028-0.392
	c-0.428-0.154-0.862-0.296-1.295-0.439c-0.347-0.115-0.693-0.234-1.043-0.342c-0.441-0.135-0.887-0.256-1.333-0.379
	c-0.352-0.097-0.701-0.2-1.055-0.29c-0.454-0.115-0.914-0.215-1.373-0.318c-0.353-0.079-0.703-0.165-1.058-0.237
	c-0.474-0.096-0.954-0.174-1.432-0.257c-0.347-0.06-0.692-0.128-1.042-0.18c-0.505-0.076-1.015-0.133-1.524-0.194
	c-0.33-0.039-0.656-0.088-0.988-0.122c-0.563-0.056-1.133-0.092-1.701-0.13c-0.283-0.019-0.564-0.048-0.848-0.063
	c-0.855-0.043-1.715-0.065-2.58-0.065s-1.725,0.023-2.58,0.065c-0.284,0.014-0.565,0.044-0.848,0.063
	c-0.569,0.038-1.138,0.073-1.701,0.13c-0.331,0.033-0.658,0.082-0.988,0.122c-0.509,0.061-1.02,0.118-1.524,0.194
	c-0.35,0.053-0.694,0.121-1.042,0.18c-0.478,0.083-0.958,0.161-1.432,0.257c-0.356,0.072-0.706,0.158-1.059,0.237
	c-0.459,0.103-0.918,0.202-1.372,0.317c-0.355,0.09-0.704,0.193-1.056,0.291c-0.445,0.123-0.892,0.244-1.332,0.379
	c-0.351,0.108-0.696,0.227-1.043,0.342c-0.433,0.143-0.867,0.285-1.295,0.439c-0.346,0.125-0.686,0.26-1.028,0.392
	c-0.422,0.163-0.844,0.324-1.26,0.498c-0.338,0.141-0.67,0.291-1.004,0.439c-0.412,0.182-0.824,0.364-1.23,0.557
	c-0.329,0.156-0.653,0.32-0.978,0.483c-0.402,0.201-0.803,0.403-1.199,0.615c-0.32,0.171-0.636,0.35-0.953,0.528
	c-0.39,0.219-0.778,0.44-1.162,0.669c-0.312,0.186-0.619,0.379-0.927,0.571c-0.378,0.237-0.755,0.476-1.126,0.723
	c-0.301,0.2-0.598,0.405-0.894,0.611c-0.367,0.255-0.732,0.513-1.092,0.777c-0.29,0.213-0.576,0.43-0.861,0.648
	c-0.355,0.273-0.708,0.548-1.055,0.83c-0.278,0.225-0.553,0.453-0.826,0.684c-0.343,0.29-0.682,0.583-1.018,0.882
	c-0.266,0.236-0.529,0.475-0.789,0.717c-0.33,0.306-0.655,0.617-0.977,0.932c-0.254,0.248-0.505,0.498-0.754,0.751
	c-0.316,0.322-0.626,0.649-0.933,0.979c-0.241,0.259-0.481,0.519-0.716,0.783c-0.301,0.337-0.596,0.68-0.889,1.026
	c-0.228,0.269-0.454,0.538-0.677,0.812c-0.287,0.353-0.566,0.712-0.844,1.073c-0.214,0.278-0.427,0.556-0.635,0.838
	c-0.271,0.368-0.534,0.742-0.796,1.118c-0.199,0.287-0.4,0.572-0.593,0.863c-0.255,0.383-0.501,0.772-0.746,1.162
	c-0.185,0.295-0.372,0.589-0.552,0.888c-0.238,0.397-0.465,0.8-0.693,1.203c-0.17,0.302-0.343,0.603-0.508,0.909
	c-0.221,0.412-0.43,0.83-0.64,1.249c-0.155,0.308-0.313,0.614-0.461,0.925c-0.203,0.427-0.394,0.86-0.586,1.294
	c-0.138,0.312-0.281,0.622-0.413,0.937c-0.185,0.443-0.357,0.892-0.53,1.341c-0.122,0.315-0.249,0.628-0.365,0.947
	c-0.167,0.459-0.318,0.926-0.472,1.392c-0.104,0.315-0.215,0.628-0.313,0.946c-0.149,0.482-0.281,0.972-0.416,1.461
	c-0.085,0.309-0.178,0.615-0.258,0.926c-0.132,0.516-0.245,1.04-0.361,1.562c-0.065,0.29-0.138,0.577-0.198,0.87
	c-0.119,0.582-0.217,1.172-0.315,1.761c-0.04,0.239-0.09,0.474-0.126,0.713c-0.127,0.831-0.234,1.668-0.32,2.512
	c-0.01,0.099-0.014,0.199-0.023,0.298c-0.07,0.73-0.131,1.463-0.17,2.201h-10.429V350.6V189.787h74.972
	c2.281,0,4.508,0.93,6.109,2.552l45.76,46.325l0,0c1.598,1.618,2.478,3.762,2.478,6.035L497.042,364.1L497.042,364.1z"/>
<g>
</g>
<g>
</g>
<g>
</g>
<g>
</g>
<g>
</g>
<g>
</g>
<g>
</g>
<g>
</g>
<g>
</g>
<g>
</g>
<g>
</g>
<g>
</g>
<g>
</g>
<g>
</g>
<g>
</g>
</svg>
