<svg id="Layer_4" height="512" viewBox="0 0 24 24" width="512" xmlns="http://www.w3.org/2000/svg" data-name="Layer 4"><circle cx="12" cy="12" r="2"/><path d="m12 8.5a8.0681 8.0681 0 0 0 -6.4072 3.5088 8.2261 8.2261 0 0 0 6.4072 3.4912 8.0681 8.0681 0 0 0 6.4072-3.5088 8.2261 8.2261 0 0 0 -6.4072-3.4912zm0 6.5a3 3 0 1 1 3-3 3.0033 3.0033 0 0 1 -3 3z"/><path d="m20.07.5361a61.0012 61.0012 0 0 0 -16.1018-.005 3.9792 3.9792 0 0 0 -3.4321 3.3989 61.0009 61.0009 0 0 0 -.0053 16.1 3.995 3.995 0 0 0 3.4389 3.44 60.9906 60.9906 0 0 0 7.9715.53 60.9955 60.9955 0 0 0 8.09-.5309 3.98 3.98 0 0 0 3.4327-3.3991 61.0038 61.0038 0 0 0 .5361-8.07 61.0076 61.0076 0 0 0 -.5311-8.0319 3.9793 3.9793 0 0 0 -3.3989-3.432zm-.6391 11.7168a9.0607 9.0607 0 0 1 -7.4309 4.2471 9.073 9.073 0 0 1 -7.4307-4.2461.4966.4966 0 0 1 0-.5068 9.0607 9.0607 0 0 1 7.4307-4.2471 9.073 9.073 0 0 1 7.4307 4.2461.4966.4966 0 0 1 0 .5068z"/></svg>