<svg id="Layer_1" enable-background="new 0 0 48 48" viewBox="0 0 48 48" xmlns="http://www.w3.org/2000/svg" xmlns:xlink="http://www.w3.org/1999/xlink"><linearGradient id="SVGID_1_" gradientUnits="userSpaceOnUse" x1="1.28" x2="44.101" y1="1.28" y2="44.101"><stop offset="0" stop-color="#6dc41a"/><stop offset="1" stop-color="#04a275"/></linearGradient><g><circle cx="24" cy="24" fill="url(#SVGID_1_)" r="23.8"/><g fill="#fff"><path d="m35.7 34.4v-10.1c0-1.6-1.3-2.9-2.9-2.9h-.2v-3c0-4.8-3.9-8.6-8.6-8.6s-8.6 3.9-8.6 8.6v3h-.2c-1.6 0-2.9 1.3-2.9 2.9v10.1c0 1.6 1.3 2.9 2.9 2.9h17.7c1.5 0 2.8-1.3 2.8-2.9zm-18.8-16c0-3.9 3.2-7.1 7.1-7.1s7.1 3.2 7.1 7.1v3h-1.8v-3c0-2.9-2.4-5.3-5.3-5.3s-5.3 2.4-5.3 5.3v3h-1.8zm3.3 3v-3c0-2.1 1.7-3.8 3.8-3.8s3.8 1.7 3.8 3.8v3zm-6.4 13v-10.1c0-.8.6-1.4 1.4-1.4h1 3.3 9.1 3.3 1c.8 0 1.4.6 1.4 1.4v10.1c0 .8-.6 1.4-1.4 1.4h-17.7c-.8 0-1.4-.7-1.4-1.4z"/><path d="m24 23.9c-3 0-5.4 2.4-5.4 5.4s2.4 5.4 5.4 5.4 5.4-2.4 5.4-5.4-2.4-5.4-5.4-5.4zm0 9.3c-2.1 0-3.9-1.7-3.9-3.9 0-2.1 1.7-3.9 3.9-3.9s3.9 1.7 3.9 3.9-1.8 3.9-3.9 3.9z"/><path d="m25.3 27-1.3 1.3-1.3-1.3-1 1.1 1.2 1.2-1.2 1.3 1 1.1 1.3-1.3 1.3 1.3 1-1.1-1.2-1.3 1.2-1.2z"/></g></g></svg>