<svg id="user_blue" enable-background="new 0 0 256 256" height="256" viewBox="0 0 256 256" width="256" xmlns="http://www.w3.org/2000/svg" xmlns:xlink="http://www.w3.org/1999/xlink"><linearGradient id="SVGID_1_" gradientUnits="userSpaceOnUse" x1="128" x2="128" y1="17.598" y2="240.868"><stop offset="0" stop-color="#54bdf1"/><stop offset="1" stop-color="#3aa5d9"/></linearGradient><g clip-rule="evenodd" fill-rule="evenodd"><path d="m76.964 73.826c0 44.905 24.37 64.781 27.982 67.486 1.018 2.702 1.47 5.133 1.47 7.241 0 7.385-4.907 11.095-5.181 11.296-60.027 25.662-103.841 39.353-100.958 62.437 0 0-.277 3.405-.277 8.189v3.386c0 4.778 3.876 8.656 8.656 8.656h238.688c4.776 0 8.655-3.878 8.655-8.656v-19.815c-2.472-16.413-28.08-30.443-83.041-45.836-10.73-2.998-17.066-7.506-18.816-13.396-2.543-8.52 5.311-17.614 5.391-17.708.614-.484 20.773-18.067 19.472-64.075-.684-23.996-7.322-41.101-19.733-50.838-14.826-11.638-32.236-8.36-33.681-8.065-.659.068-47.077 5.246-48.573 56-.032 1.247-.054 2.489-.054 3.698z" fill="url(#SVGID_1_)"/><path d="m.247 218.533c-.07.696-.094 1.403-.072 2.117.054-1.019.102-1.623.102-1.623-.019-.167-.014-.329-.03-.494zm247.098 20.726h-238.689c-4.78 0-8.656-3.877-8.656-8.655v3.258c0 4.778 3.876 8.656 8.656 8.656h238.688c4.776 0 8.655-3.878 8.655-8.656v-3.258c.001 4.778-3.878 8.655-8.654 8.655z" fill="#2c2c2c" opacity=".2"/></g></svg>