<svg id="Layer_1" enable-background="new 0 0 1024 1024" viewBox="0 0 1024 1024" xmlns="http://www.w3.org/2000/svg"><g id="security_1_"><g id="XMLID_22_"><path id="XMLID_29_" d="m502.5 125.2c11.3 2.2 22.6 4.5 33.9 6.7 27.2 5.4 54.3 10.8 81.5 16.2 32.9 6.5 65.8 13 98.7 19.6 28.5 5.6 56.9 11.3 85.4 16.9 13.9 2.8 27.7 5.8 41.7 8.3.2 0 .4.1.6.1-12.2-16.1-24.5-32.1-36.7-48.2v58.9 135.8 151 106c0 8.4.4 17-.4 25.4-.1 1.5-.3 3-.5 4.5.6-4.4 1.2-8.9 1.8-13.3-2.3 16.9-7.5 33.4-14.1 49.1 1.7-4 3.4-8 5-11.9-10.5 24.8-24.8 47.8-41.2 69.1 2.6-3.4 5.2-6.7 7.8-10.1-26.6 34.3-58.6 64.2-92.8 90.7 3.4-2.6 6.7-5.2 10.1-7.8-43.7 33.6-91.2 62-140.4 86.8-17.2 8.7-34.7 17-52.3 24.9 12.8-1.7 25.7-3.4 38.5-5-8.2-2.9-16.3-6.3-24.3-9.6 4 1.7 8 3.4 11.9 5-45.5-19.2-89.5-42.4-130.9-69.5-15.3-10-30.2-20.5-44.6-31.6 3.4 2.6 6.7 5.2 10.1 7.8-33.2-25.7-64.1-54.7-89.8-88 2.6 3.4 5.2 6.7 7.8 10.1-17.3-22.5-32.2-46.9-43.3-73.1 1.7 4 3.4 8 5 11.9-7.3-17.4-12.8-35.4-16.4-53.9.6 4.4 1.2 8.9 1.8 13.3 0-15.7 0-31.5 0-47.2 0-37.8 0-75.6 0-113.3 0-45.7 0-91.4 0-137.1 0-39.5 0-79 0-118.5 0-19.2.3-38.4 0-57.6 0-.3 0-.5 0-.8-12.2 16.1-24.5 32.1-36.7 48.2l34.8-6.9c27.8-5.6 55.7-11.1 83.5-16.7 33.5-6.7 67-13.4 100.5-20 29.1-5.8 58.3-11.6 87.4-17.4 14.2-2.8 28.4-5.3 42.5-8.5.2 0 .4-.1.6-.1 11.8-2.4 24-12.9 29.9-23 6.3-10.7 8.9-26.5 5-38.5-3.9-12.1-11.4-23.8-23-29.9-12.4-6.5-24.8-7.8-38.5-5-11.6 2.3-23.2 4.6-34.8 6.9-27.8 5.6-55.7 11.1-83.5 16.7-33.5 6.7-67 13.4-100.5 20-29.1 5.8-58.3 11.6-87.4 17.4-14.1 2.8-28.5 5.1-42.5 8.5-.2 0-.4.1-.6.1-4 1.7-8 3.4-11.9 5-5.8 3.1-10.5 7.4-14 12.9-6.7 8.7-10.7 19-10.7 30.3v39.3 96.9 123 117.5 80.4c0 5.5-.1 11 0 16.4.2 9.1 2.5 18.5 4.6 27.4 2.9 11.7 6.6 23.3 11 34.5 10.2 26 22.4 50.9 38.2 74 15.6 22.8 33.2 44.5 52.5 64.4 34.7 35.7 75 66.5 116.8 93.5 31.5 20.3 64.5 38.3 98.4 54.1 20.6 9.6 41.5 19.1 63 26.7.4.1.8.3 1.3.5 17.8 5.9 34.4-3 50.1-10.2 17.5-8 34.8-16.4 51.9-25.3 29.8-15.5 58.9-32.3 86.9-50.9 45.2-30 88.8-64.2 125.2-104.6 24.9-27.7 47.9-58.3 64.1-91.9 10.2-21.3 19.5-43.9 23.5-67.4 1.8-10.4 3.5-21.1 3.5-31.7 0-15.7 0-31.4 0-47.1 0-33.9 0-67.8 0-101.7 0-41.3 0-82.6 0-124 0-38 0-76 0-114 0-23.9 0-47.8 0-71.7 0-3.3 0-6.6 0-10 0-11.1-4-21.6-10.7-30.3-6.2-8.1-15.6-15.9-26-17.9-11.3-2.2-22.6-4.5-33.9-6.7-27.2-5.4-54.3-10.8-81.5-16.2-32.9-6.5-65.8-13-98.7-19.6-28.5-5.6-56.9-11.3-85.4-16.9-13.9-2.8-27.8-5.6-41.7-8.3-.2 0-.4-.1-.6-.1-13.3-2.6-26.5-2-38.5 5-10.4 6.1-20.3 18-23 29.9-2.9 12.8-2.3 27.2 5 38.5 6.9 10.4 17.3 20.4 30 22.9z"/><path id="XMLID_28_" d="m299.7 500.6c34.8 34.8 69.5 69.5 104.3 104.3l14.9 14.9c19.1 19.1 51.6 19.1 70.7 0 26.6-26.6 53.2-53.2 79.8-79.8 42-42 84.1-84.1 126.1-126.1 9.6-9.6 19.2-19.2 28.8-28.8 9.1-9.1 14.6-22.5 14.6-35.4 0-12.3-5.4-26.9-14.6-35.4-9.5-8.7-22-15.2-35.4-14.6-13.3.6-25.8 5.1-35.4 14.6-26.6 26.6-53.2 53.2-79.8 79.8-42 42-84.1 84.1-126.1 126.1-9.6 9.6-19.2 19.2-28.8 28.8h70.7c-34.8-34.8-69.5-69.5-104.3-104.3-5-5-10-10-14.9-14.9-9.1-9.1-22.5-14.6-35.4-14.6-12.3 0-26.9 5.4-35.4 14.6-8.7 9.5-15.2 22-14.6 35.4.7 13.3 5.2 25.8 14.8 35.4z"/></g></g></svg>