<svg enable-background="new 0 0 512 512" viewBox="0 0 512 512" xmlns="http://www.w3.org/2000/svg"><g id="_x32_8_Shield"><g><path d="m256 490.848c-141.514-45.95-204.945-227.553-207.98-378.278 72.223 12.665 163.6-19.615 207.98-91.419 44.38 71.804 135.653 104.083 207.98 91.419-3.035 150.725-66.57 332.328-207.98 378.278" fill="#f9f9f9"/><path d="m398.484 173.291c-14.079 91.551-56.783 215.635-142.561 253.292-98.001-42.433-131.255-179.75-142.378-253.296 52.764-6.69 102.888-28.732 142.454-61.857 39.575 33.133 89.717 55.179 142.485 61.861" fill="#c9def7"/><g fill="#0c76f0"><path d="m462.672 105.106c-65.452 11.46-155.192-15.078-200.225-87.935-1.376-2.234-3.817-3.596-6.444-3.596-2.626 0-5.06 1.361-6.444 3.596-45.048 72.88-134.847 99.439-200.232 87.935-2.234-.385-4.513.237-6.237 1.716-1.724 1.472-2.693 3.64-2.649 5.904 3.196 158.373 70.364 338.941 213.224 385.328.762.244 1.546.37 2.338.37s1.583-.126 2.338-.37c142.867-46.424 210.028-226.984 213.216-385.328.044-2.264-.925-4.432-2.641-5.904-1.731-1.479-4.017-2.1-6.244-1.716zm-206.668 377.76c-131.548-44.419-194.839-211.574-200.159-361.476 66.34 8.042 152.085-18.459 200.158-86.507 48.066 68.056 133.811 94.593 200.158 86.5-5.318 149.879-68.602 317.027-200.157 361.483z"/><path d="m399.44 165.772c-50.692-6.414-99.905-27.78-138.583-60.147-2.811-2.353-6.91-2.353-9.721 0-38.656 32.352-87.854 53.718-138.546 60.147-2.027.259-3.862 1.324-5.09 2.952s-1.753 3.677-1.443 5.697c11.822 78.14 46.616 215.717 146.854 259.115.962.414 1.983.621 3.011.621 1.036 0 2.071-.215 3.048-.636 106.63-46.816 139.478-210.139 147.002-259.078.311-2.02-.207-4.084-1.435-5.719-1.235-1.628-3.07-2.694-5.097-2.952zm-143.547 252.5c-88.179-40.623-121.42-163.382-133.671-238.562 48.695-7.576 95.711-28.128 133.774-58.498 38.079 30.377 85.094 50.929 133.782 58.498-15.78 94.009-58.697 203.191-133.885 238.562z"/><path d="m220.448 263.65c-2.959-2.959-7.753-2.959-10.713 0-2.959 2.959-2.959 7.753 0 10.713l21.233 21.233c1.42 1.42 3.344 2.219 5.356 2.219s3.936-.799 5.356-2.219l60.584-60.591c2.959-2.959 2.959-7.753 0-10.713-2.959-2.959-7.753-2.959-10.713 0l-55.228 55.235z"/></g></g></g><g id="Layer_1"/></svg>