<svg height="512" viewBox="0 0 64 64" width="512" xmlns="http://www.w3.org/2000/svg"><g id="Filled_outline" data-name="Filled outline"><path d="m3 3h58v4h-58z" fill="#66342e"/><path d="m5 7h54v54h-54z" fill="#cfdfe8"/><path d="m22 43h20v18h-20z" fill="#ad6327"/><path d="m26 47h4v6h-4z" fill="#50b4f8"/><path d="m34 47h4v6h-4z" fill="#50b4f8"/><path d="m17 61h-4l-1-4h6z" fill="#d3843d"/><circle cx="15" cy="50" fill="#55b56a" r="3"/><path d="m51 61h-4l-1-4h6z" fill="#d3843d"/><circle cx="49" cy="50" fill="#55b56a" r="3"/><path d="m12 15h8v8h-8z" fill="#fff69a"/><path d="m28 15h8v8h-8z" fill="#fff69a"/><path d="m44 15h8v8h-8z" fill="#fff69a"/><path d="m9 22h14v2h-14z" fill="#7d8d9c"/><path d="m25 22h14v2h-14z" fill="#7d8d9c"/><path d="m41 22h14v2h-14z" fill="#7d8d9c"/><path d="m12 27h8a2 2 0 0 1 2 2v2a0 0 0 0 1 0 0h-12a0 0 0 0 1 0 0v-2a2 2 0 0 1 2-2z" fill="#ad6327"/><path d="m12 31h8v8h-8z" fill="#fff69a"/><path d="m28 27h8a2 2 0 0 1 2 2v2a0 0 0 0 1 0 0h-12a0 0 0 0 1 0 0v-2a2 2 0 0 1 2-2z" fill="#ad6327"/><path d="m28 31h8v8h-8z" fill="#fff69a"/><path d="m44 27h8a2 2 0 0 1 2 2v2a0 0 0 0 1 0 0h-12a0 0 0 0 1 0 0v-2a2 2 0 0 1 2-2z" fill="#ad6327"/><path d="m44 31h8v8h-8z" fill="#fff69a"/><g fill="#7d8d9c"><path d="m9 38h14v2h-14z"/><path d="m25 38h14v2h-14z"/><path d="m41 38h14v2h-14z"/><path d="m5 42h5v2h-5z"/><path d="m5 46h3v2h-3z"/><path d="m5 53h5v2h-5z"/><path d="m53 42h6v2h-6z"/><path d="m55 47h4v2h-4z"/><path d="m54 52h5v2h-5z"/></g><path d="m12 11h8a2 2 0 0 1 2 2v2a0 0 0 0 1 0 0h-12a0 0 0 0 1 0 0v-2a2 2 0 0 1 2-2z" fill="#ad6327"/><path d="m28 11h8a2 2 0 0 1 2 2v2a0 0 0 0 1 0 0h-12a0 0 0 0 1 0 0v-2a2 2 0 0 1 2-2z" fill="#ad6327"/><path d="m44 11h8a2 2 0 0 1 2 2v2a0 0 0 0 1 0 0h-12a0 0 0 0 1 0 0v-2a2 2 0 0 1 2-2z" fill="#ad6327"/><path d="m2 8h2v54h56v-54h2v-6h-60zm14.219 52h-2.438l-.5-2h3.438zm24.781 0h-18v-16h18zm9.219 0h-2.438l-.5-2h3.438zm7.781-18h-5v2h5v3h-3v2h3v3h-4v2h4v6h-5.72l.69-2.758a1 1 0 0 0 -.97-1.242h-2v-2.142a4 4 0 1 0 -2 0v2.142h-2a1 1 0 0 0 -.97 1.242l.69 2.758h-2.72v-16h3v-2h-29v2h4v16h-2.72l.69-2.758a1 1 0 0 0 -.97-1.242h-2v-2.142a4 4 0 1 0 -2 0v2.142h-2a1 1 0 0 0 -.97 1.242l.69 2.758h-5.72v-5h4v-2h-4v-5h2v-2h-2v-2h4v-2h-4v-34h52zm-9 10a2 2 0 1 1 2-2 2 2 0 0 1 -2 2zm-34 0a2 2 0 1 1 2-2 2 2 0 0 1 -2 2zm-11-48h56v2h-56z"/><path d="m31 46h-6v8h6zm-2 6h-2v-4h2z"/><path d="m39 46h-6v8h6zm-2 6h-2v-4h2z"/><path d="m23 24v-2h-2v-6h1a1 1 0 0 0 1-1v-2a3 3 0 0 0 -3-3h-8a3 3 0 0 0 -3 3v2a1 1 0 0 0 1 1h1v6h-2v2zm-8-2h-2v-2h2zm0-4h-2v-2h2zm4 4h-2v-2h2zm0-4h-2v-2h2zm-8-5a1 1 0 0 1 1-1h8a1 1 0 0 1 1 1v1h-10z"/><path d="m39 24v-2h-2v-6h1a1 1 0 0 0 1-1v-2a3 3 0 0 0 -3-3h-8a3 3 0 0 0 -3 3v2a1 1 0 0 0 1 1h1v6h-2v2zm-8-2h-2v-2h2zm0-4h-2v-2h2zm4 4h-2v-2h2zm0-4h-2v-2h2zm-8-5a1 1 0 0 1 1-1h8a1 1 0 0 1 1 1v1h-10z"/><path d="m55 24v-2h-2v-6h1a1 1 0 0 0 1-1v-2a3 3 0 0 0 -3-3h-8a3 3 0 0 0 -3 3v2a1 1 0 0 0 1 1h1v6h-2v2zm-8-2h-2v-2h2zm0-4h-2v-2h2zm4 4h-2v-2h2zm0-4h-2v-2h2zm-8-5a1 1 0 0 1 1-1h8a1 1 0 0 1 1 1v1h-10z"/><path d="m23 40v-2h-2v-6h1a1 1 0 0 0 1-1v-2a3 3 0 0 0 -3-3h-8a3 3 0 0 0 -3 3v2a1 1 0 0 0 1 1h1v6h-2v2zm-8-2h-2v-2h2zm0-4h-2v-2h2zm4 4h-2v-2h2zm0-4h-2v-2h2zm-8-5a1 1 0 0 1 1-1h8a1 1 0 0 1 1 1v1h-10z"/><path d="m39 40v-2h-2v-6h1a1 1 0 0 0 1-1v-2a3 3 0 0 0 -3-3h-8a3 3 0 0 0 -3 3v2a1 1 0 0 0 1 1h1v6h-2v2zm-8-2h-2v-2h2zm0-4h-2v-2h2zm4 4h-2v-2h2zm0-4h-2v-2h2zm-8-5a1 1 0 0 1 1-1h8a1 1 0 0 1 1 1v1h-10z"/><path d="m55 40v-2h-2v-6h1a1 1 0 0 0 1-1v-2a3 3 0 0 0 -3-3h-8a3 3 0 0 0 -3 3v2a1 1 0 0 0 1 1h1v6h-2v2zm-8-2h-2v-2h2zm0-4h-2v-2h2zm4 4h-2v-2h2zm0-4h-2v-2h2zm-8-5a1 1 0 0 1 1-1h8a1 1 0 0 1 1 1v1h-10z"/></g></svg>