<svg viewBox="0 0 512 512" xmlns="http://www.w3.org/2000/svg"><g id="Layer_2" data-name="Layer 2"><g id="Layer_2_copy_9" data-name="Layer 2 copy 9"><g id="_48" data-name="48"><circle id="background" cx="256" cy="256" fill="#da0a92" r="256"/><path d="m512 256c0 141.38-114.62 256-256 256a259 259 0 0 1 -36.43-2.57l-83.51-83.52-5.37-15.22 9.85-41.59-39.41-39.41-10.13-36.45v-106.52l8.57-33.72 22.21-24.57 39.85-12.31h188.74l43.43 14.88 118.11 118.13q.09 3.42.09 6.87z" fill="#a80075"/><path d="m350.37 116.09h-188.74a70.63 70.63 0 0 0 -70.63 70.63v106.52a70.65 70.65 0 0 0 49.9 67.54l-10.21 49.91a12.65 12.65 0 0 0 20.31 12.41l74-59.22h62l74 59.22a12.65 12.65 0 0 0 20.29-12.41l-10.19-49.91a70.65 70.65 0 0 0 49.9-67.54v-106.52a70.63 70.63 0 0 0 -70.63-70.63zm-160.12 143.91a20.92 20.92 0 1 1 20.92-20.92 20.92 20.92 0 0 1 -20.92 20.92zm65.75 0a20.92 20.92 0 1 1 20.92-20.92 20.92 20.92 0 0 1 -20.92 20.92zm65.75 0a20.92 20.92 0 1 1 20.92-20.92 20.92 20.92 0 0 1 -20.92 20.92z" fill="#fff"/></g></g></g></svg>