<svg height="512pt" viewBox="0 0 512 512" width="512pt" xmlns="http://www.w3.org/2000/svg"><path d="m452 30v30h-90v-30c0-16.5 43.5-30 60-30s30 13.5 30 30zm0 0" fill="#a3a3d1"/><path d="m422 0c-15.300781 0-30 12.300781-30 30v452c0 16.5-13.5 30-30 30s-60-13.5-60-30h-240v-437c0-24.902344 20.097656-45 45-45zm0 0" fill="#f2f2fc"/><path d="m422 0c-15.300781 0-30 12.300781-30 30v452c0 16.5-13.5 30-30 30s-60-13.5-60-30h-75v-482zm0 0" fill="#d8d8fc"/><path d="m452 150h30v45h-30zm0 0" fill="#d8d8fc"/><path d="m467 150h15v45h-15zm0 0" fill="#a3a3d1"/><path d="m512 240v169.601562l-45 91-45-91v-169.601562l30-30h37.5zm0 0" fill="#ff641a"/><path d="m512 240v169.601562l-45 91v-290.601562h22.5zm0 0" fill="#f03800"/><path d="m122 300h210v30h-210zm0 0" fill="#d8d8fc"/><path d="m122 360h210v30h-210zm0 0" fill="#d8d8fc"/><path d="m227 60c-57.898438 0-105 47.101562-105 105s47.101562 105 105 105c16.5 0 32.402344-3.601562 47.101562-11.101562l-13.5-26.699219c-10.5 5.101562-21.902343 7.800781-33.601562 7.800781-41.398438 0-75-33.601562-75-75s33.601562-75 75-75 75 33.601562 75 75c0 8.398438-6.597656 15-15 15s-15-6.601562-15-15c0-24.902344-20.097656-45-45-45s-45 20.097656-45 45c0 24.898438 20.097656 45 45 45 11.699219 0 21.898438-4.5 30-11.699219 8.101562 7.199219 18.300781 11.699219 30 11.699219 24.902344 0 45-20.101562 45-45 0-57.898438-47.101562-105-105-105zm0 120c-8.402344 0-15-6.601562-15-15 0-8.402344 6.597656-15 15-15s15 6.597656 15 15c0 8.398438-6.597656 15-15 15zm0 0" fill="#00c8c8"/><path d="m274.101562 258.898438c-14.703124 7.5-30.601562 11.101562-47.101562 11.101562v-30c11.699219 0 23.101562-2.699219 33.601562-7.800781zm0 0" fill="#1cadb5"/><path d="m332 165c0 24.898438-20.097656 45-45 45-11.699219 0-21.898438-4.5-30-11.699219-8.101562 7.199219-18.300781 11.699219-30 11.699219v-30c8.402344 0 15-6.601562 15-15 0-8.402344-6.597656-15-15-15v-30c24.902344 0 45 20.097656 45 45 0 8.398438 6.597656 15 15 15s15-6.601562 15-15c0-41.398438-33.601562-75-75-75v-30c57.898438 0 105 47.101562 105 105zm0 0" fill="#1cadb5"/><path d="m422 180h90v60h-90zm0 0" fill="#575f64"/><path d="m467 180h45v60h-45zm0 0" fill="#32393f"/><path d="m362 512h-317c-24.902344 0-45-20.101562-45-45v-15h332v30c0 16.5 13.5 30 30 30zm0 0" fill="#d8d8fc"/><g fill="#a3a3d1"><path d="m362 512h-135v-60h105v30c0 16.5 13.5 30 30 30zm0 0"/><path d="m227 300h105v30h-105zm0 0"/><path d="m227 360h105v30h-105zm0 0"/></g></svg>