<svg height="512" viewBox="0 0 60 60" width="512" xmlns="http://www.w3.org/2000/svg"><g id="Page-1" fill="none" fill-rule="evenodd"><g id="027---Gaming-Controller" fill-rule="nonzero"><path id="Shape" d="m28 19h4c.5522847 0 1 .4477153 1 1v4h-6v-4c0-.5522847.4477153-1 1-1z" fill="#37474f"/><path id="Shape" d="m59 44c0 12-2 15-6 15-3.31 0-7.49-4.82-9.95-8.07 1.2698355-1.7539473 1.2663557-4.1259537-.0086205-5.8761677-1.2749762-1.7502141-3.5316607-2.4808312-5.590481-1.8099569-2.0588203.6708744-3.4518291 2.590758-3.4508985 4.7561246h-8c.0009306-2.1653666-1.3920782-4.0852502-3.4508985-4.7561246-2.0588203-.6708743-4.3155048.0597428-5.590481 1.8099569-1.2749762 1.750214-1.278456 4.1222204-.0086205 5.8761677-2.46 3.25-6.64 8.07-9.95 8.07-4 0-6-3-6-15s7-22 15-22c5 0 8 2 11 2h6c3 0 6-2 11-2 8 0 15 10 15 22z" fill="#607d8b"/><path id="Shape" d="m44 22c-.62 0-1.208.031-1.771.085 7.471.959 13.771 10.535 13.771 21.915 0 10.193-1.449 13.881-4.335 14.764.4296874.148894.8803075.2285542 1.335.236 4 0 6-3 6-15s-7-22-15-22z" fill="#37474f"/><path id="Shape" d="m26 48c0 2.7614237-2.2385763 5-5 5s-5-2.2385763-5-5 2.2385763-5 5-5 5 2.2385763 5 5z" fill="#9e9e9e"/><path id="Shape" d="m21 43c-.5101742.0069635-1.0161845.0929853-1.5.255 2.0868014.6439291 3.5081906 2.5753653 3.5024435 4.7592499-.0057471 2.1838845-1.437282 4.107813-3.5274435 4.7407501 1.8804931.6113311 3.9446133.0570015 5.2658409-1.4141673 1.3212275-1.4711688 1.6513359-3.5827801.8421496-5.3869967-.8091862-1.8042166-2.6056407-2.9620702-4.5829905-2.953836z" fill="#707070"/><path id="Shape" d="m44 48c0 2.7614237-2.2385763 5-5 5s-5-2.2385763-5-5 2.2385763-5 5-5c1.3296-.0115847 2.6081116.5114787 3.5483165 1.4516835.9402048.9402049 1.4632682 2.2187165 1.4516835 3.5483165z" fill="#9e9e9e"/><path id="Shape" d="m39 43c-.5101742.0069635-1.0161845.0929853-1.5.255 2.0776583.6453927 3.4955254 2.5652357 3.5012506 4.7408191.0057252 2.1755833-1.4020179 4.1028621-3.4762506 4.7591809.4763695.1561077.9737435.2387224 1.475.245 2.7614237 0 5-2.2385763 5-5s-2.2385763-5-5-5z" fill="#707070"/><path id="Shape" d="m20 32h-3v-3c0-.5522847-.4477153-1-1-1h-2c-.5522847 0-1 .4477153-1 1v3h-3c-.55228475 0-1 .4477153-1 1v2c0 .5522847.44771525 1 1 1h3v3c0 .5522847.4477153 1 1 1h2c.5522847 0 1-.4477153 1-1v-3h3c.5522847 0 1-.4477153 1-1v-2c0-.5522847-.4477153-1-1-1z" fill="#9e9e9e"/><circle id="Oval" cx="39" cy="34" fill="#02a9f4" r="2"/><circle id="Oval" cx="49" cy="34" fill="#f44335" r="2"/><circle id="Oval" cx="44" cy="39" fill="#a4c400" r="2"/><circle id="Oval" cx="44" cy="29" fill="#ffdc00" r="2"/><g fill="#000"><path id="Shape" d="m44 21c-2.4434367.0432507-4.8661052.45765-7.185 1.229-.9215992.2930699-1.8621153.5229367-2.815.688v-2.917c0-1.1045695-.8954305-2-2-2h-1v-6c0-1.6568542 1.3431458-3 3-3s3 1.3431458 3 3v2c0 2.209139 1.790861 4 4 4s4-1.790861 4-4v-13c0-.55228475-.4477153-1-1-1s-1 .44771525-1 1v13c0 1.1045695-.8954305 2-2 2s-2-.8954305-2-2v-2c0-2.76142375-2.2385763-5-5-5s-5 2.23857625-5 5v6h-1c-1.1045695 0-2 .8954305-2 2v2.917c-.9528847-.1650633-1.8934008-.3949301-2.815-.688-2.3188948-.77135-4.7415633-1.1857493-7.185-1.229-8.673 0-16 10.533-16 23 0 11.664 1.9 16 7 16 2.713 0 6.081-2.532 10.018-7.524 1.6261113 1.4545295 3.9149684 1.9087916 5.9733044 1.1855025 2.0583359-.7232891 3.5599059-2.5094886 3.9186956-4.6615025h6.18c.3587897 2.1520139 1.8603597 3.9382134 3.9186956 4.6615025 2.058336.7232891 4.3471931.269027 5.9733044-1.1855025 3.937 4.992 7.305 7.524 10.018 7.524 5.1 0 7-4.336 7-16 0-12.467-7.327-23-16-23zm-16-1h4v3h-4zm-7 32c-2.209139 0-4-1.790861-4-4s1.790861-4 4-4 4 1.790861 4 4-1.790861 4-4 4zm18 0c-2.209139 0-4-1.790861-4-4s1.790861-4 4-4 4 1.790861 4 4-1.790861 4-4 4zm14 6c-2.045 0-5.21-2.593-8.733-7.13 1.1506646-2.0921878.9512707-4.6675225-.5077234-6.5576588s-3.8998628-2.7352792-6.2152638-2.1520149-4.0645883 2.4839089-4.4540128 4.8396737h-6.18c-.3894245-2.3557648-2.1386118-4.2564094-4.4540128-4.8396737s-4.7562697.2618786-6.2152638 2.1520149-1.658388 4.465471-.5077234 6.5576588c-3.523 4.537-6.688 7.13-8.733 7.13-2.635 0-5-1.071-5-14 0-11.187 6.542-21 14-21 2.2539177.0480765 4.4876992.4357687 6.626 1.15 1.4107224.4878044 2.8832588.7739626 4.374.85h6c1.4907412-.0760374 2.9632776-.3621956 4.374-.85 2.1383008-.7142313 4.3720823-1.1019235 6.626-1.15 7.458 0 14 9.813 14 21 0 12.929-2.365 14-5 14z"/><path id="Shape" d="m20 31h-2v-2c0-1.1045695-.8954305-2-2-2h-2c-1.1045695 0-2 .8954305-2 2v2h-2c-1.1045695 0-2 .8954305-2 2v2c0 1.1045695.8954305 2 2 2h2v2c0 1.1045695.8954305 2 2 2h2c1.1045695 0 2-.8954305 2-2v-2h2c1.1045695 0 2-.8954305 2-2v-2c0-1.1045695-.8954305-2-2-2zm0 4h-3c-.5522847 0-1 .4477153-1 1v3h-2v-3c0-.5522847-.4477153-1-1-1h-3v-2h3c.5522847 0 1-.4477153 1-1v-3h2v3c0 .5522847.4477153 1 1 1h3z"/><path id="Shape" d="m42 34c0-1.6568542-1.3431458-3-3-3s-3 1.3431458-3 3 1.3431458 3 3 3 3-1.3431458 3-3zm-3 1c-.5522847 0-1-.4477153-1-1s.4477153-1 1-1 1 .4477153 1 1-.4477153 1-1 1z"/><path id="Shape" d="m49 31c-1.6568542 0-3 1.3431458-3 3s1.3431458 3 3 3 3-1.3431458 3-3-1.3431458-3-3-3zm0 4c-.5522847 0-1-.4477153-1-1s.4477153-1 1-1 1 .4477153 1 1-.4477153 1-1 1z"/><path id="Shape" d="m44 36c-1.6568542 0-3 1.3431458-3 3s1.3431458 3 3 3 3-1.3431458 3-3-1.3431458-3-3-3zm0 4c-.5522847 0-1-.4477153-1-1s.4477153-1 1-1 1 .4477153 1 1-.4477153 1-1 1z"/><path id="Shape" d="m44 32c1.6568542 0 3-1.3431458 3-3s-1.3431458-3-3-3-3 1.3431458-3 3 1.3431458 3 3 3zm0-4c.5522847 0 1 .4477153 1 1s-.4477153 1-1 1-1-.4477153-1-1 .4477153-1 1-1z"/></g></g></g></svg>