<svg id="Layer_1" enable-background="new 0 0 48 48" viewBox="0 0 48 48" xmlns="http://www.w3.org/2000/svg"><path d="m24 0c-13.2 0-24 10.8-24 24s10.8 24 24 24 24-10.8 24-24-10.8-24-24-24zm1 13.7c2.8-.1 5.6-.4 8.2-.9.9 3 1.5 6.5 1.5 10.2h-9.7zm0-2v-9.6c3.1.6 5.8 4 7.6 8.8-2.4.5-5 .8-7.6.8zm-2-9.6v9.6c-2.6-.1-5.2-.3-7.6-.8 1.8-4.8 4.5-8.2 7.6-8.8zm0 11.6v9.3h-9.7c.1-3.7.6-7.2 1.5-10.2 2.6.5 5.4.9 8.2.9zm-11.7 9.3h-9.3c.2-4.9 2-9.3 4.9-12.9 1.7.9 3.7 1.6 5.9 2.2-.9 3.2-1.5 6.8-1.5 10.7zm0 2c.1 3.9.6 7.5 1.5 10.7-2.2.6-4.1 1.3-5.9 2.2-2.8-3.6-4.7-8-4.9-12.9zm2 0h9.7v9.3c-2.8.1-5.6.4-8.2.9-.9-3-1.5-6.5-1.5-10.2zm9.7 11.3v9.6c-3.1-.6-5.8-4-7.6-8.8 2.4-.5 5-.8 7.6-.8zm2 9.6v-9.6c2.6.1 5.2.3 7.6.8-1.8 4.8-4.5 8.2-7.6 8.8zm0-11.6v-9.3h9.7c-.1 3.7-.6 7.2-1.5 10.2-2.6-.5-5.4-.9-8.2-.9zm11.7-9.3h9.3c-.2 4.9-2 9.3-4.9 12.9-1.7-.9-3.7-1.6-5.9-2.2.9-3.2 1.5-6.8 1.5-10.7zm0-2c-.1-3.9-.6-7.5-1.5-10.7 2.2-.6 4.1-1.3 5.9-2.2 2.9 3.5 4.7 8 4.9 12.9zm3-14.4c-1.5.7-3.2 1.4-5.1 1.8-1.1-3.1-2.6-5.7-4.4-7.5 3.6 1 6.9 3 9.5 5.7zm-21.8-5.7c-1.8 1.8-3.3 4.4-4.4 7.5-1.9-.5-3.6-1.1-5.1-1.8 2.5-2.7 5.8-4.7 9.5-5.7zm-9.6 36.5c1.5-.7 3.2-1.4 5.1-1.8 1.1 3.1 2.6 5.7 4.4 7.5-3.6-1-6.9-3-9.5-5.7zm21.8 5.7c1.8-1.8 3.3-4.4 4.4-7.5 1.9.5 3.6 1.1 5.1 1.8-2.5 2.7-5.8 4.7-9.5 5.7z"/></svg>