<svg viewBox="0 0 24 24" xmlns="http://www.w3.org/2000/svg"><g id="Layer_2" data-name="Layer 2"><path d="m9.021 12.20508a4.6272 4.6272 0 1 1 4.62744-4.62744 4.63246 4.63246 0 0 1 -4.62744 4.62744zm0-7.7544a3.1272 3.1272 0 1 0 3.12744 3.127 3.13072 3.13072 0 0 0 -3.12744-3.127z"/><path d="m15.99951 19.22656a.74987.74987 0 0 1 -.72314-.55371l-.75337-2.77734a2.25484 2.25484 0 0 0 -2.17139-1.66065h-6.70317a2.25484 2.25484 0 0 0 -2.17139 1.66065l-.75342 2.77734a.74978.74978 0 1 1 -1.44726-.39258l.75342-2.77734a3.75663 3.75663 0 0 1 3.61865-2.76807h6.70312a3.75663 3.75663 0 0 1 3.61865 2.76807l.75342 2.77734a.7491.7491 0 0 1 -.52734.91993.74.74 0 0 1 -.19678.02636z"/><path d="m16.06982 10.33984a4.04917 4.04917 0 0 1 -1.165-.17138.74985.74985 0 0 1 .43066-1.43653 2.54445 2.54445 0 1 0 .73434-4.98193 2.46294 2.46294 0 0 0 -1.53662.52979.75009.75009 0 1 1 -.92675-1.17969 3.95079 3.95079 0 0 1 2.46337-.8501 4.04492 4.04492 0 0 1 0 8.08984z"/><path d="m21.99951 16.75a.75084.75084 0 0 1 -.72754-.56885l-.46-1.8501a2.45487 2.45487 0 0 0 -2.38179-1.85105h-4.43018a.75.75 0 0 1 0-1.5h4.43018a3.9547 3.9547 0 0 1 3.83691 2.98584l.46094 1.853a.74939.74939 0 0 1 -.72852.93115z"/></g></svg>