<svg enable-background="new 0 0 512 512" viewBox="0 0 512 512" xmlns="http://www.w3.org/2000/svg"><g id="_x33_9_x2C__Handbag_x2C__woman_bag_x2C__purse_x2C__accessories_x2C_clothes"><g><g><path d="m501 201.2v180c0 57.88-46.92 104.8-104.8 104.8h-280.4c-57.88 0-104.8-46.92-104.8-104.8v-180z" fill="#946044"/><g><path d="m458.6 136c-.168 0-53.878 0-405.2 0-23.42 0-42.4 18.98-42.4 42.4v22.8c0 49.34 34.09 90.71 80 101.84 17.441 2.188 37.793 3.009 60.001 2.96h209.999c22.285-.209 42.389-1.161 60-2.96 45.91-11.13 80-52.5 80-101.84v-22.8c0-23.42-18.98-42.4-42.4-42.4z" fill="#f1d0a4"/></g><path d="m421 346c0 16.57-13.43 30-30 30s-30-13.43-30-30c0-14.275 0-55.755 0-70h60z" fill="#edbb87"/><path d="m391 196c0 13.81-11.19 25-25 25-13.824 0-25-11.2-25-25v-35c0-47.119-38.233-85-85-85-47.009 0-85 38.14-85 85v35c0 13.81-11.19 25-25 25-13.824 0-25-11.2-25-25 .445-29.224-1.277-40.957 2.32-60 11.71-62.61 66.66-110 132.68-110 65.739 0 120.943 47.14 132.68 110 3.592 19.017 1.873 30.661 2.32 60z" fill="#aa745a"/><path d="m151 346c0 16.57-13.43 30-30 30s-30-13.43-30-30c0-16.072 0-54.526 0-70h60z" fill="#edbb87"/></g><g><path d="m458.6 126h-61.88c-15.7-63.099-72.832-110-140.72-110s-125.02 46.901-140.719 110h-61.881c-28.893 0-52.4 23.507-52.4 52.4v202.8c0 63.301 51.499 114.8 114.8 114.8h280.4c63.301 0 114.8-51.499 114.8-114.8v-202.8c0-28.893-23.507-52.4-52.4-52.4zm-202.6-90c68.925 0 125 56.075 125 125v35c0 8.271-6.729 15-15 15s-15-6.729-15-15v-35c0-52.415-42.65-95-95-95-52.288 0-95 42.524-95 95v35c0 8.271-6.729 15-15 15s-15-6.729-15-15v-35c0-68.925 56.075-125 125-125zm66.304 90h-132.608c12.596-23.766 37.584-40 66.304-40s53.708 16.234 66.304 40zm-301.304 52.4c0-17.865 14.535-32.4 32.4-32.4h58.372c-1.249 12.097-.585 17.922-.772 50 0 19.299 15.701 35 35 35s35-15.701 35-35c.369-31.923-.934-38.013 1.509-50h146.981c2.443 11.989 1.14 18.003 1.509 50 0 19.299 15.701 35 35 35s35-15.701 35-35c-.19-32.559.474-37.925-.772-50h58.373c17.865 0 32.4 14.535 32.4 32.4v22.8c0 39.526-24.114 74.155-60 88.212v-13.412c0-5.522-4.478-10-10-10h-60c-5.522 0-10 4.478-10 10v20h-190v-20c0-5.522-4.478-10-10-10h-60c-5.522 0-10 4.478-10 10v13.412c-35.886-14.057-60-48.686-60-88.212zm350 107.6h40v60c0 11.028-8.972 20-20 20s-20-8.972-20-20zm-230 60c0 11.028-8.972 20-20 20s-20-8.972-20-20v-60h40zm350 35.2c0 52.272-42.527 94.8-94.8 94.8h-280.4c-52.273 0-94.8-42.527-94.8-94.8v-115.224c14.441 21.047 35.638 36.863 60 44.62v35.404c0 22.056 17.944 40 40 40s40-17.944 40-40v-30h190v30c0 22.056 17.944 40 40 40s40-17.944 40-40v-35.404c24.374-7.76 45.564-23.585 60-44.628z"/></g></g></g><g id="Layer_1"/></svg>