<svg id="Layer_2" viewBox="0 0 512 512" xmlns="http://www.w3.org/2000/svg" data-name="Layer 2"><g id="Favourite"><rect fill="#6401c4" height="512" rx="106.65" width="512"/><path d="m412.24 124.97-.66-.61c-26.11-22.06-53.23-31.17-80.6-27.08-36.29 5.42-62.95 32.69-75.16 47.73-12.21-15.04-38.86-42.31-75.16-47.73-27.37-4.09-54.49 5.02-80.6 27.08l-.65.61c-21.19 22-31.34 46.07-30.17 71.54 2.39 51.93 51.26 94.1 69.66 109.98 2.16 1.87 3.87 3.34 4.87 4.29 13.76 13.04 105.03 101.52 105.95 102.41l6.1 5.91 6.1-5.91c.92-.89 92.19-89.37 105.95-102.41 1-.95 2.71-2.42 4.87-4.29 18.4-15.88 67.27-58.05 69.66-109.98 1.17-25.48-8.98-49.55-30.17-71.54zm12.67 70.74c-2.04 44.4-46.77 82.99-63.61 97.52-2.34 2.02-4.18 3.61-5.47 4.83-11.73 11.11-79.2 76.48-100 96.64-20.8-20.16-88.27-85.53-100-96.64-1.29-1.23-3.14-2.82-5.48-4.83-16.84-14.53-61.56-53.13-63.6-97.52-.94-20.36 7.46-39.96 24.97-58.26 21.95-18.43 44.24-26.11 66.27-22.85 41.72 6.18 70.2 49.42 70.48 49.86l7.34 11.37 7.37-11.37c.28-.44 28.76-43.68 70.48-49.86 22.02-3.26 44.32 4.43 66.27 22.86 17.51 18.3 25.91 37.9 24.97 58.26z" fill="#fff"/></g></svg>