<svg clip-rule="evenodd" fill-rule="evenodd" height="512" image-rendering="optimizeQuality" shape-rendering="geometricPrecision" text-rendering="geometricPrecision" viewBox="0 0 512 512" width="512" xmlns="http://www.w3.org/2000/svg" xmlns:xodm="http://www.corel.com/coreldraw/odm/2003"><g id="Layer_x0020_1"><path d="m241.97 235.92c-3.86 0-6.99-3.13-6.99-7v-94.4c0-55.91 45.48-101.39 101.39-101.39 3.87 0 7 3.13 7 6.99 0 3.87-3.13 7-7 7-48.19 0-87.4 39.21-87.4 87.4v94.4c0 3.87-3.13 7-7 7z" fill="#34414c"/><path d="m480 478.88h-448c-17.63 0-31.98-14.35-31.98-31.98v-193c0-17.63 14.35-31.98 31.98-31.98h448c17.63 0 31.98 14.34 31.98 31.98v193c0 17.63-14.35 31.98-31.98 31.98z" fill="#384956"/><g id="_2023534132448" fill="#fefefe"><path d="m313.79 377.62h-39.15c-3.87 0-7-3.13-7-7v-18.95h-8.65c-3.86 0-7-3.13-7-6.99v-24.58c0-3.87 3.14-7 7-7h54.8c3.86 0 7 3.13 7 7v50.52c0 3.87-3.14 7-7 7z"/><path d="m252.48 449.66h-137.64c-3.86 0-7-3.14-7-7v-48.82c0-3.87 3.14-7 7-7h137.64c3.86 0 6.99 3.13 6.99 7v48.82c0 3.86-3.13 7-6.99 7z"/><path d="m318.94 449.66h-47.54c-3.86 0-7-3.14-7-7v-40.45c0-3.87 3.14-7 7-7h47.54c3.87 0 7 3.13 7 7v40.45c0 3.86-3.13 7-7 7z"/><path d="m92.32 377.62h-47.54c-3.87 0-7-3.13-7-7v-40.44c0-3.87 3.13-7 7-7h47.54c3.86 0 6.99 3.13 6.99 7v40.44c0 3.87-3.13 7-6.99 7z"/><path d="m92.32 449.66h-47.54c-3.87 0-7-3.14-7-7v-40.45c0-3.87 3.13-7 7-7h47.54c3.86 0 6.99 3.13 6.99 7v40.45c0 3.86-3.13 7-6.99 7z"/><path d="m92.32 305.59h-47.54c-3.87 0-7-3.14-7-7v-40.45c0-3.86 3.13-7 7-7h47.54c3.86 0 6.99 3.14 6.99 7v40.45c0 3.86-3.13 7-6.99 7z"/><path d="m162.01 305.59h-47.53c-3.87 0-7-3.14-7-7v-40.45c0-3.86 3.13-7 7-7h47.53c3.87 0 7 3.14 7 7v40.45c0 3.86-3.13 7-7 7z"/><path d="m231.72 305.59h-47.54c-3.87 0-7-3.14-7-7v-40.45c0-3.86 3.13-7 7-7h47.54c3.86 0 6.99 3.14 6.99 7v40.45c0 3.86-3.13 7-6.99 7z"/><path d="m301.41 305.59h-47.53c-3.87 0-7-3.14-7-7v-40.45c0-3.86 3.13-7 7-7h47.53c3.87 0 7 3.14 7 7v40.45c0 3.86-3.13 7-7 7z"/><path d="m161.39 377.62h-47.54c-3.86 0-7-3.13-7-7v-40.44c0-3.87 3.14-7 7-7h47.54c3.87 0 7 3.13 7 7v40.44c0 3.87-3.14 7-7 7z"/><path d="m230.46 377.62h-47.53c-3.87 0-7-3.13-7-7v-40.44c0-3.87 3.13-7 7-7h47.53c3.87 0 7 3.13 7 7v40.44c0 3.87-3.13 7-7 7z"/><path d="m390.09 449.66h-47.54c-3.86 0-7-3.14-7-7v-40.45c0-3.87 3.14-7 7-7h47.54c3.86 0 7 3.13 7 7v40.45c0 3.86-3.14 7-7 7z"/><path d="m461.23 449.66h-47.53c-3.87 0-7-3.14-7-7v-40.45c0-3.87 3.13-7 7-7h47.53c3.87 0 7 3.13 7 7v40.45c0 3.86-3.13 7-7 7z"/><path d="m390.09 377.62h-47.54c-3.86 0-7-3.13-7-7v-40.44c0-3.87 3.14-7 7-7h47.54c3.86 0 7 3.13 7 7v40.44c0 3.87-3.14 7-7 7z"/><path d="m390.09 305.59h-47.54c-3.86 0-7-3.14-7-7v-40.45c0-3.87 3.14-7 7-7h47.54c3.86 0 7 3.13 7 7v40.45c0 3.86-3.14 7-7 7z"/><path d="m461.33 377.62h-47.54c-3.86 0-6.99-3.13-6.99-7v-40.44c0-3.87 3.13-7 6.99-7h47.54c3.87 0 7 3.13 7 7v40.44c0 3.87-3.13 7-7 7z"/><path d="m461.33 304.21h-47.54c-3.86 0-6.99-3.14-6.99-7v-40.45c0-3.87 3.13-7 6.99-7h47.54c3.87 0 7 3.13 7 7v40.45c0 3.86-3.13 7-7 7z"/></g><g id="_2023534134320"><g><path d="m461.33 300.21c1.66 0 3-1.35 3-3v-40.45c0-1.66-1.34-3-3-3h-47.54c-1.65 0-3 1.34-3 3v40.45c0 1.65 1.35 3 3 3z" fill="#34414c"/></g><g><path d="m461.33 373.62c1.66 0 3-1.34 3-3v-40.44c0-1.66-1.34-3-3-3h-47.54c-1.65 0-3 1.34-3 3v40.44c0 1.66 1.35 3 3 3z" fill="#34414c"/></g><g><path d="m390.09 301.59c1.65 0 3-1.34 3-3v-40.45c0-1.66-1.35-3-3-3h-47.54c-1.66 0-3 1.34-3 3v40.45c0 1.66 1.34 3 3 3z" fill="#34414c"/></g><g><path d="m390.09 373.62c1.65 0 3-1.34 3-3v-40.44c0-1.66-1.35-3-3-3h-47.54c-1.66 0-3 1.34-3 3v40.44c0 1.66 1.34 3 3 3z" fill="#34414c"/></g><g><path d="m461.23 445.66c1.66 0 3-1.34 3-3v-40.45c0-1.66-1.34-3-3-3h-47.53c-1.66 0-3 1.34-3 3v40.45c0 1.66 1.34 3 3 3z" fill="#34414c"/></g><g><path d="m390.09 445.66c1.65 0 3-1.34 3-3v-40.45c0-1.66-1.35-3-3-3h-47.54c-1.66 0-3 1.34-3 3v40.45c0 1.66 1.34 3 3 3z" fill="#34414c"/></g><g><path d="m230.46 373.62c1.66 0 3-1.34 3-3v-40.44c0-1.66-1.34-3-3-3h-47.53c-1.66 0-3 1.34-3 3v40.44c0 1.66 1.34 3 3 3z" fill="#34414c"/></g><g><path d="m161.39 373.62c1.66 0 3-1.34 3-3v-40.44c0-1.66-1.34-3-3-3h-47.54c-1.65 0-3 1.34-3 3v40.44c0 1.66 1.35 3 3 3z" fill="#34414c"/></g><g><path d="m301.41 301.59c1.66 0 3-1.34 3-3v-40.45c0-1.66-1.34-3-3-3h-47.53c-1.66 0-3 1.34-3 3v40.45c0 1.66 1.34 3 3 3z" fill="#34414c"/></g><g><path d="m231.72 301.59c1.65 0 3-1.34 3-3v-40.45c0-1.66-1.35-3-3-3h-47.54c-1.66 0-3 1.34-3 3v40.45c0 1.66 1.34 3 3 3z" fill="#34414c"/></g><g><path d="m162.01 301.59c1.66 0 3-1.34 3-3v-40.45c0-1.66-1.34-3-3-3h-47.53c-1.66 0-3 1.34-3 3v40.45c0 1.66 1.34 3 3 3z" fill="#34414c"/></g><g><path d="m92.32 301.59c1.65 0 3-1.34 3-3v-40.45c0-1.66-1.35-3-3-3h-47.54c-1.66 0-3 1.34-3 3v40.45c0 1.66 1.34 3 3 3z" fill="#34414c"/></g><g><path d="m92.32 445.66c1.65 0 3-1.34 3-3v-40.45c0-1.66-1.35-3-3-3h-47.54c-1.66 0-3 1.34-3 3v40.45c0 1.66 1.34 3 3 3z" fill="#34414c"/></g><g><path d="m92.32 373.62c1.65 0 3-1.34 3-3v-40.44c0-1.66-1.35-3-3-3h-47.54c-1.66 0-3 1.34-3 3v40.44c0 1.66 1.34 3 3 3z" fill="#34414c"/></g><g><path d="m318.94 445.66c1.66 0 3-1.34 3-3v-40.45c0-1.66-1.34-3-3-3h-47.54c-1.65 0-3 1.34-3 3v40.45c0 1.66 1.35 3 3 3z" fill="#34414c"/></g><g><path d="m252.48 445.66c1.65 0 3-1.34 3-3v-48.82c0-1.66-1.35-3-3-3h-137.64c-1.66 0-3 1.34-3 3v48.82c0 1.66 1.34 3 3 3z" fill="#34414c"/></g><g><path d="m313.79 373.62c1.65 0 3-1.34 3-3v-50.52c0-1.66-1.34-3-3-3h-54.8c-1.65 0-3 1.34-3 3v24.58c0 1.65 1.35 3 3 3h12.65v22.94c0 1.66 1.34 3 3 3z" fill="#34414c"/></g></g></g></svg>