<svg height="512pt" viewBox="0 0 512.02573 512" width="512pt" xmlns="http://www.w3.org/2000/svg"><path d="m442.484375 312.011719h-372.945313c-16.289062-.039063-29.488281-13.234375-29.527343-29.527344v-252.945313c.039062-16.289062 13.238281-29.4882808 29.527343-29.5273432h372.945313c16.292969.0390624 29.488281 13.2382812 29.527344 29.5273432v252.945313c-.039063 16.292969-13.234375 29.488281-29.527344 29.527344zm-372.945313-296c-7.464843.011719-13.515624 6.0625-13.527343 13.527343v252.945313c.011719 7.46875 6.0625 13.519531 13.527343 13.527344h372.945313c7.46875-.007813 13.519531-6.058594 13.527344-13.527344v-252.945313c-.007813-7.464843-6.058594-13.515624-13.527344-13.527343zm0 0"/><path d="m482.019531 512.011719h-452.015625c-9.128906-.085938-17.679687-4.5-23.039062-11.894531-6.621094-8.980469-8.660156-20.535157-5.519532-31.242188l43.128907-149.820312c3.261719-13.226563 14.941406-22.652344 28.558593-23.042969h365.761719c13.613281.390625 25.296875 9.816406 28.558594 23.042969l43.128906 149.820312c3.140625 10.707031 1.097657 22.261719-5.519531 31.242188-5.359375 7.394531-13.910156 11.808593-23.042969 11.894531zm-408.886719-200c-6.457031.457031-11.835937 5.132812-13.183593 11.464843l-43.136719 149.824219c-1.757812 5.871094-.679688 12.230469 2.921875 17.191407 2.363281 3.355468 6.167969 5.398437 10.269531 5.519531h452c4.101563-.121094 7.902344-2.167969 10.265625-5.519531 3.597657-4.960938 4.679688-11.320313 2.917969-17.191407l-43.109375-149.824219c-1.351563-6.332031-6.726563-11.007812-13.183594-11.464843zm0 0"/><path d="m104.011719 336.011719h16v16h-16zm0 0"/><path d="m88.011719 368.011719h16v16h-16zm0 0"/><path d="m72.011719 400.011719h16v16h-16zm0 0"/><path d="m136.011719 336.011719h16v16h-16zm0 0"/><path d="m120.011719 368.011719h16v16h-16zm0 0"/><path d="m104.011719 400.011719h16v16h-16zm0 0"/><path d="m168.011719 336.011719h16v16h-16zm0 0"/><path d="m152.011719 368.011719h16v16h-16zm0 0"/><path d="m136.011719 400.011719h16v16h-16zm0 0"/><path d="m200.011719 336.011719h16v16h-16zm0 0"/><path d="m392.011719 336.011719h16v16h-16zm0 0"/><path d="m408.011719 368.011719h16v16h-16zm0 0"/><path d="m424.011719 400.011719h16v16h-16zm0 0"/><path d="m360.011719 336.011719h16v16h-16zm0 0"/><path d="m376.011719 368.011719h16v16h-16zm0 0"/><path d="m392.011719 400.011719h16v16h-16zm0 0"/><path d="m328.011719 336.011719h16v16h-16zm0 0"/><path d="m344.011719 368.011719h16v16h-16zm0 0"/><path d="m360.011719 400.011719h16v16h-16zm0 0"/><path d="m296.011719 336.011719h16v16h-16zm0 0"/><path d="m312.011719 368.011719h16v16h-16zm0 0"/><path d="m328.011719 400.011719h16v16h-16zm0 0"/><path d="m264.011719 336.011719h16v16h-16zm0 0"/><path d="m280.011719 368.011719h16v16h-16zm0 0"/><path d="m184.011719 368.011719h16v16h-16zm0 0"/><path d="m168.011719 400.011719h16v16h-16zm0 0"/><path d="m232.011719 336.011719h16v16h-16zm0 0"/><path d="m216.011719 368.011719h16v16h-16zm0 0"/><path d="m248.011719 368.011719h16v16h-16zm0 0"/><path d="m200.011719 400.011719h112v16h-112zm0 0"/><path d="m328.011719 488.011719h-144c-2.945313 0-5.652344-1.621094-7.046875-4.21875-1.394532-2.597657-1.246094-5.75.382812-8.203125l26.519532-40c1.484374-2.234375 3.984374-3.578125 6.664062-3.578125h90.960938c2.679687 0 5.183593 1.34375 6.664062 3.578125l26.519531 40c1.632813 2.453125 1.777344 5.605468.386719 8.203125-1.394531 2.597656-4.101562 4.21875-7.050781 4.21875zm-129.09375-16h114.191406l-15.914063-24h-82.398437zm0 0"/><path d="m432.011719 280.011719h-352c-4.417969 0-8-3.582031-8-8v-232c0-4.417969 3.582031-8 8-8h352c4.417969 0 8 3.582031 8 8v232c0 4.417969-3.582031 8-8 8zm-344-16h336v-216h-336zm0 0"/></svg>