<svg id="Layer_1" height="512" viewBox="0 0 512 512" width="512" xmlns="http://www.w3.org/2000/svg" data-name="Layer 1"><path d="m510.016 399.135-51.349-79.135c-2.005-2.807-7.224-10.667-10.667-10.667h-384c-3.443 0-8.661 7.859-10.667 10.667l-51.349 79.135a10.656 10.656 0 0 0 -1.984 6.198v10.667a21.354 21.354 0 0 0 21.333 21.333h469.334a21.354 21.354 0 0 0 21.333-21.333v-10.667a10.656 10.656 0 0 0 -1.984-6.198z" fill="#eaeff0"/><path d="m427.135 74.667h-342.27a31.568 31.568 0 0 0 -31.532 31.533v213.8h405.334v-213.8a31.568 31.568 0 0 0 -31.532-31.533z" fill="#2d4a60"/><path d="m53.333 106.2v213.8h405.334l-393.657-238.266a31.475 31.475 0 0 0 -11.677 24.466z" fill="#263f52"/><path d="m426.667 96h-341.334a10.667 10.667 0 0 0 -10.667 10.667v192h362.667v-192a10.667 10.667 0 0 0 -10.666-10.667z" fill="#00aae5"/><path d="m88.579 96h-3.246a10.667 10.667 0 0 0 -10.667 10.667v192h348.755z" fill="#009ae0"/><g fill="#bac2c6"><path d="m21.333 437.333h469.334a21.354 21.354 0 0 0 21.333-21.333v-10.667h-512v10.667a21.354 21.354 0 0 0 21.333 21.333z"/><path d="m53.19 373.333h405.62a5.333 5.333 0 0 0 4.621-8l-16.9-29.329a10.667 10.667 0 0 0 -9.242-5.341h-362.579a10.667 10.667 0 0 0 -9.242 5.341l-16.9 29.329a5.333 5.333 0 0 0 4.622 8z"/><path d="m220.456 381.082-1.514 16a2.667 2.667 0 0 0 2.658 2.918h68.8a2.667 2.667 0 0 0 2.655-2.918l-1.514-16a2.667 2.667 0 0 0 -2.655-2.416h-65.775a2.667 2.667 0 0 0 -2.655 2.416z"/></g></svg>
