<svg clip-rule="evenodd" fill-rule="evenodd" height="512" image-rendering="optimizeQuality" shape-rendering="geometricPrecision" text-rendering="geometricPrecision" viewBox="0 0 512 512" width="512" xmlns="http://www.w3.org/2000/svg" xmlns:xodm="http://www.corel.com/coreldraw/odm/2003"><g id="Layer_x0020_1"><g id="_1994391919264"><path d="m256 502.91c-83.98 0-173.24-19.85-173.24-56.62 0-32.2 69.25-51.07 137.87-55.49 1.67-.12 3.28.47 4.49 1.61 1.21 1.13 1.9 2.71 1.9 4.37v24.44h57.96v-24.44c0-1.66.68-3.24 1.89-4.37 1.21-1.14 2.83-1.73 4.49-1.61 68.63 4.42 137.87 23.29 137.87 55.49 0 36.77-89.25 56.62-173.23 56.62z" fill="#58535a"/><path d="m290.98 433.22h-69.96c-3.31 0-6-2.69-6-6v-65.52c0-3.31 2.69-6 6-6h69.96c3.31 0 6 2.69 6 6v65.52c0 3.31-2.69 6-6 6z" fill="#78747a"/><path d="m491.58 367.7h-471.17c-11.24 0-20.39-9.15-20.39-20.4v-317.81c0-11.25 9.15-20.4 20.39-20.4h471.17c11.25 0 20.4 9.15 20.4 20.4v317.81c0 11.25-9.15 20.4-20.4 20.4z" fill="#58535a"/><path d="m493.98 278.71v-249.22c0-1.31-1.08-2.4-2.4-2.4h-471.17c-1.31 0-2.4 1.09-2.4 2.4v249.22z" fill="#66d2f6"/><path d="m284.74 329.2h-57.48c-3.31 0-6-2.68-6-6 0-3.31 2.69-6 6-6h57.48c3.31 0 6 2.69 6 6 0 3.32-2.69 6-6 6z" fill="#78747a"/><path d="m493.98 278.71v-249.22c0-1.31-1.08-2.4-2.4-2.4h-17.67l-435.82 251.62z" fill="#83dbf8"/></g></g></svg>