<svg id="Layer_1_6_" enable-background="new 0 0 48 48" height="512" viewBox="0 0 48 48" width="512" xmlns="http://www.w3.org/2000/svg"><path d="m23 27-10.537 17.562c-.212.354.256.719.548.428l24.929-24.93c.34-.34.051-.916-.424-.849l-12.516 1.789 10.537-17.562c.212-.354-.256-.719-.548-.428l-24.928 24.929c-.34.34-.051.916.424.849z" fill="#f99f10"/><path d="m27.333 20.667-2.333.333 10.537-17.562c.212-.354-.256-.719-.548-.428l-24.928 24.929c-.34.34-.051.916.424.849l10.182-1.454z" fill="#f9c900"/></svg>