<svg clip-rule="evenodd" fill-rule="evenodd" height="512" image-rendering="optimizeQuality" shape-rendering="geometricPrecision" text-rendering="geometricPrecision" viewBox="0 0 769.14 696.44" width="512" xmlns="http://www.w3.org/2000/svg" xmlns:xodm="http://www.corel.com/coreldraw/odm/2003"><g id="Layer_x0020_1"><path d="m68.8 401.02c-45.86-45.86-68.8-105.99-68.8-166.1 0-60.12 22.94-120.24 68.8-166.11 45.87-45.86 105.99-68.81 166.11-68.81 53.17 0 106.35 17.95 149.66 53.84 43.31-35.89 96.49-53.84 149.66-53.84 60.11 0 120.24 22.95 166.11 68.81 45.87 45.87 68.8 105.99 68.8 166.11 0 60.11-22.93 120.23-68.8 166.1l-281.07 281.07c-9.56 9.56-22.14 14.35-34.7 14.35-12.51 0-25.05-4.79-34.61-14.35zm32.89-32.88 280.93 281.01c.51.54 1.22.77 1.95.77.68 0 1.34-.24 1.82-.72l281.06-281.06c36.78-36.79 55.18-85.01 55.18-133.22 0-48.22-18.4-96.44-55.18-133.22s-85-55.18-133.22-55.18c-48.21 0-96.43 18.39-133.22 55.17-9.08 9.08-23.81 9.08-32.88 0-36.79-36.78-85.01-55.17-133.22-55.17-48.22 0-96.44 18.4-133.22 55.18s-55.18 85-55.18 133.22 18.4 96.44 55.18 133.22z" fill-rule="nonzero"/><path d="m386.4 649.19 281.06-281.06c36.78-36.79 55.18-85.01 55.18-133.22 0-48.22-18.4-96.44-55.18-133.22s-85-55.18-133.22-55.18c-48.21 0-96.43 18.39-133.22 55.17-9.08 9.08-23.81 9.08-32.88 0-36.79-36.78-85.01-55.17-133.22-55.17-48.22 0-96.44 18.4-133.22 55.18s-55.18 85-55.18 133.22 18.4 96.44 55.18 133.22l280.93 281.01c.51.54 1.22.77 1.95.77.68 0 1.34-.24 1.82-.72zm-261.59-388.5c2.41 12.59-5.85 24.76-18.44 27.16-12.59 2.41-24.76-5.85-27.16-18.44-10.25-53.1 6.23-107.8 44.65-146.5 29.38-29.6 70.07-48.05 115.16-48.37 12.79-.05 23.21 10.28 23.25 23.08.05 12.79-10.28 23.2-23.07 23.25-32.2.23-61.35 13.49-82.46 34.75-27.48 27.68-39.25 67.08-31.93 105.07z" fill="#f00"/></g></svg>