<svg id="Layer_1" enable-background="new 0 0 296 226" height="512" viewBox="0 0 296 226" width="512" xmlns="http://www.w3.org/2000/svg" xmlns:xodm="http://www.corel.com/coreldraw/odm/2003"><g id="Layer_x0020_1"><path clip-rule="evenodd" d="m32.947.281h230.107c17.9 0 32.947 14.787 32.947 32.947v159.544c0 18.16-15.046 32.947-32.947 32.947h-230.107c-18.16 0-32.947-14.787-32.947-32.947v-159.544c0-18.16 14.787-32.947 32.947-32.947zm0 15.566h230.107c3.372 0 6.486 1.038 9.08 2.594l-124.004 104.028-122.966-104.806c2.335-1.298 4.929-1.816 7.783-1.816zm247.488 15.565v1.816 159.544c0 2.335-.259 4.67-1.297 6.745l-83.274-97.024c-.001 0 84.571-71.081 84.571-71.081zm-12.712 178.223c-1.557.519-3.113.778-4.67.778h-230.106c-1.557 0-2.854-.259-4.41-.519l83.793-97.802 30.612 26.202c2.854 2.594 7.004 2.335 9.858 0l31.131-25.942zm-250.861-9.599c-1.038-2.335-1.557-4.67-1.557-7.264v-159.544c0-1.297.259-2.335.519-3.632l84.831 72.379z" fill-rule="evenodd"/></g></svg>