<svg viewBox="0 0 64 64" xmlns="http://www.w3.org/2000/svg"><g id="Layer_14" data-name="Layer 14"><rect fill="#2295f0" height="38.5" rx=".948" width="59" x="2.5" y="5.194"/><path d="m60.55208 43.69431h-57.10416a.94792.94792 0 0 1 -.94792-.94792v-7.05208h59v7.05208a.94792.94792 0 0 1 -.94792.94792z" fill="#bbcdfb"/><path d="m20.38874 58.80566h-.00007l-2.29682-2.34812a.68882.68882 0 0 1 .02419-.99586c2.85335-2.49591 7.15107-4.09109 11.88396-4.44527v-7.3221h4v7.3221c4.73493.35434 9.03434 1.95076 11.88767 4.44854a.68421.68421 0 0 1 .0239.989l-1.86594 1.90763a1.1232 1.1232 0 0 1 -.82585.44406h-22.83114" fill="#455a64"/><path d="m60.55225 4.19434h-57.1045a1.94967 1.94967 0 0 0 -1.94775 1.94775v36.60449a1.94968 1.94968 0 0 0 1.94775 1.94776h25.55225v5.41015a21.27242 21.27242 0 0 0 -11.542 4.60451 1.673 1.673 0 0 0 -.56592 1.19 1.71011 1.71011 0 0 0 .48486 1.25781l2.29688 2.34814.00451.00305a1 1 0 0 0 .71033.29773h22.83107a2.1206 2.1206 0 0 0 1.541-.74462l1.86627-1.90828a1.70756 1.70756 0 0 0 .48291-1.2539 1.6693 1.6693 0 0 0 -.56347-1.18653 21.27085 21.27085 0 0 0 -11.54644-4.60791v-5.41015h25.55225a1.94968 1.94968 0 0 0 1.94775-1.94776v-36.60449a1.94967 1.94967 0 0 0 -1.94775-1.94775zm-.05225 1.94775v28.55225h-57.01154l-.04071-28.5zm-26.57471 45.87158a19.942 19.942 0 0 1 11.03907 3.97852l-1.63331 1.66992a1.68877 1.68877 0 0 0 -.14257.14355h-22.37921l-1.77363-1.813a19.93566 19.93566 0 0 1 11.03907-3.979.99965.99965 0 0 0 .92529-.99706v-6.32226h2v6.32226a.99965.99965 0 0 0 .92529.99707zm-30.42529-9.26709-.00867-6.05224h57.00867v6zm22.75-3.05224a.49972.49972 0 0 1 -.5.5h-2a.5.5 0 0 1 0-1h2a.49971.49971 0 0 1 .5.5zm5 0a.49972.49972 0 0 1 -.5.5h-2a.5.5 0 0 1 0-1h2a.49971.49971 0 0 1 .5.5zm5 0a.49972.49972 0 0 1 -.5.5h-2a.5.5 0 0 1 0-1h2a.49971.49971 0 0 1 .5.5zm5 0a.49972.49972 0 0 1 -.5.5h-2a.5.5 0 0 1 0-1h2a.49971.49971 0 0 1 .5.5z"/></g></svg>