<svg id="Layer_1" viewBox="0 0 64 64" xmlns="http://www.w3.org/2000/svg" data-name="Layer 1"><path d="m56.75 20.51c-.08-.27-.27-.49-.52-.61-.25-.13-.55-.14-.81-.03-1.04.41-2.1.6-3.29.61-1.33-.02-2.71-.42-3.97-1.18-1.88-1.14-4.01-1.8-6.14-1.92-4.83-.26-8.38 2.24-10.02 3.7-1.64-1.46-5.2-3.97-10.02-3.7-2.13.12-4.26.78-6.14 1.92-1.26.76-2.64 1.16-4.01 1.18h-.03c-1.11 0-2.19-.21-3.22-.61-.26-.11-.55-.1-.81.03-.25.12-.44.34-.52.61l-5.21 17.37c-.15.5.11 1.03.59 1.22l.44.17c.39.17.9.38 1.48.59v1.04c0 3.16 2.57 5.74 5.74 5.74h43.42c3.17 0 5.74-2.58 5.74-5.74v-1.04c.58-.21 1.09-.42 1.48-.59l.44-.17c.48-.19.74-.72.59-1.22zm-52.53 17.08 4.65-15.52c.96.27 1.94.41 2.97.41h.05c1.69-.02 3.41-.53 4.98-1.47 1.12-.67 2.94-1.51 5.22-1.63 4.48-.26 7.7 2.33 8.91 3.49v15.67c-2.17-1.7-5.95-3.88-10.86-3.6-2.49.14-4.97.92-7.18 2.25-1.53.91-3.18 1.4-4.84 1.42h-.02c-1.26 0-2.85-.6-3.88-1.02zm51.63 1.02h-.02c-1.61-.02-3.26-.51-4.79-1.42-2.21-1.33-4.69-2.11-7.18-2.25-.29-.01-.57-.02-.85-.02-4.5 0-7.97 2.02-10.01 3.62v-15.67c1.21-1.16 4.39-3.75 8.91-3.49 2.28.12 4.1.96 5.22 1.63 1.57.94 3.29 1.45 5.03 1.47 1.04.01 2-.14 2.97-.41l4.65 15.52c-1.03.42-2.62 1.02-3.93 1.02z"/></svg>