<svg id="Capa_1" enable-background="new 0 0 512 512" height="512" viewBox="0 0 512 512" width="512" xmlns="http://www.w3.org/2000/svg"><g><g><path d="m280.762 136.978-249.525.062c-3.831.001-6.988 3.005-7.179 6.831l-16.552 331.024c-.205 4.108 3.07 7.55 7.183 7.549l282.794-.071c4.113-.001 7.386-3.445 7.179-7.553l-16.718-331.015c-.193-3.825-3.351-6.828-7.182-6.827z" fill="#ee6161"/></g><g><path d="m304.659 474.823c.21 4.103-3.065 7.55-7.178 7.551l-20.913.005c4.113-.001 7.389-3.448 7.178-7.551l-16.714-331.016c-.19-3.824-3.348-6.831-7.182-6.83l20.913-.005c3.834-.001 6.992 3.006 7.182 6.83z" fill="#e94444"/></g><g><g><circle cx="81.737" cy="180.509" fill="#ebebeb" r="15.351"/></g><g><circle cx="230.284" cy="180.472" fill="#ebebeb" r="15.351"/></g></g><g><path d="m484.692 196.135-206.752.052c-3.174.001-5.79 2.49-5.949 5.66l-13.715 274.281c-.17 3.403 2.544 6.256 5.952 6.255l234.319-.059c3.408-.001 6.12-2.855 5.948-6.258l-13.852-274.274c-.16-3.17-2.777-5.658-5.951-5.657z" fill="#57be92"/></g><g><path d="m498.548 482.323-20.913.005c3.406-.001 6.124-2.85 5.944-6.256l-13.852-274.272c-.16-3.177-2.77-5.666-5.947-5.665l20.913-.005c3.177-.001 5.787 2.488 5.947 5.665l13.852 274.272c.18 3.406-2.538 6.255-5.944 6.256z" fill="#22b27f"/></g><g><g><circle cx="321.767" cy="232.152" fill="#ebebeb" r="15.059"/></g><g><circle cx="441.3" cy="232.122" fill="#ebebeb" r="15.059"/></g></g><g><path d="m168.42 373.778c-.001-4.141-3.359-7.496-7.499-7.495l-99.761.025c-4.14.001-7.496 3.359-7.495 7.499.001 4.141 3.359 7.496 7.499 7.495l99.761-.025c4.14-.001 7.496-3.358 7.495-7.499z"/><path d="m61.167 392.372c-4.14.001-7.496 3.358-7.495 7.499s3.359 7.496 7.499 7.495l44.525-.011c4.141-.001 7.496-3.359 7.495-7.499s-3.359-7.496-7.499-7.495z"/><path d="m501.941 276.913c-.209-4.135-3.731-7.312-7.866-7.11-4.136.209-7.319 3.731-7.11 7.866l9.961 197.157-231.081.058 13.561-271.201 33.765-.008.002 7.627c-8.188 3.387-13.964 11.459-13.962 20.856.003 12.437 10.124 22.553 22.561 22.55s22.553-10.124 22.55-22.561c-.003-10.212-6.829-18.854-16.155-21.62l-.002-6.856 106.722-.027.002 6.855c-9.325 2.77-16.148 11.416-16.145 21.628.003 12.437 10.124 22.553 22.561 22.55s22.553-10.124 22.55-22.561c-.002-9.397-5.783-17.465-13.972-20.849l-.002-7.627 33.347-.008 1.988 39.356c.209 4.135 3.743 7.324 7.866 7.11 4.135-.209 7.318-3.731 7.11-7.866l-2.062-40.818c-.362-7.166-6.265-12.778-13.441-12.776l-34.812.009-.005-20.556c-.009-37.692-30.681-68.348-68.373-68.338-37.691.009-68.347 30.681-68.338 68.373l.005 20.556-15.45.004-2.286-45.257c-.395-7.822-6.84-13.948-14.673-13.946l-41.883.01-.006-24.827c-.011-45.561-37.087-82.618-82.648-82.606-45.561.011-82.618 37.087-82.606 82.648l.006 24.827-42.387.011c-7.832.002-14.274 6.131-14.665 13.953l-16.55 331.023c-.2 3.999 1.269 7.957 4.029 10.857 2.76 2.901 6.64 4.563 10.644 4.562l99.867-.025c4.141-.001 7.496-3.358 7.495-7.499s-3.359-7.496-7.499-7.495l-99.545.025 16.522-330.409 42.095-.011.004 14.625c-8.609 3.279-14.743 11.616-14.741 21.362.003 12.599 10.255 22.846 22.854 22.842 12.598-.003 22.845-10.255 22.842-22.854-.003-10.197-6.72-18.851-15.961-21.779l-.004-14.201 135.266-.034.004 14.052c-9.497 2.774-16.456 11.556-16.453 21.936.003 12.599 10.255 22.846 22.854 22.842 12.598-.003 22.845-10.255 22.842-22.854-.002-9.555-5.903-17.752-14.248-21.156l-.004-14.824 41.591-.01 2.233 44.212-4.766.001c-7.174.002-13.075 5.616-13.434 12.783l-13.671 273.416-101.167.025c-4.14.001-7.496 3.359-7.495 7.499s3.359 7.496 7.499 7.495l348.88-.087c3.668-.001 7.221-1.526 9.748-4.185 2.527-2.658 3.871-6.284 3.686-9.948zm-60.643-52.353c4.169-.001 7.562 3.39 7.563 7.56.001 4.169-3.39 7.562-7.56 7.563-4.169.001-7.562-3.39-7.563-7.56 0-4.168 3.391-7.562 7.56-7.563zm-113.141-56.439c-.007-29.424 23.924-53.367 53.347-53.375 29.424-.007 53.367 23.924 53.375 53.348l.005 20.556-106.722.027zm-6.392 56.469c4.169-.001 7.562 3.39 7.563 7.56.001 4.169-3.39 7.562-7.56 7.563-4.169.001-7.562-3.39-7.563-7.56 0-4.169 3.391-7.562 7.56-7.563zm-232.174-44.083c.001 4.331-3.521 7.855-7.851 7.856-4.331.001-7.855-3.521-7.856-7.852-.001-4.33 3.521-7.854 7.852-7.855 4.329-.001 7.853 3.521 7.855 7.851zm-.974-50.977-.006-24.827c-.009-37.293 30.323-67.64 67.616-67.65 37.293-.009 67.64 30.323 67.65 67.616l.006 24.827zm141.669 58.796c-4.331.001-7.855-3.521-7.856-7.852-.001-4.33 3.521-7.854 7.852-7.855 4.33-.001 7.854 3.521 7.855 7.851.002 4.331-3.52 7.855-7.851 7.856z"/><path d="m414.002 373.717c-.001-4.141-3.358-7.496-7.499-7.495l-99.761.025c-4.141.001-7.496 3.358-7.495 7.499s3.359 7.496 7.499 7.495l99.761-.025c4.14-.001 7.496-3.359 7.495-7.499z"/><path d="m306.749 392.31c-4.141.001-7.496 3.358-7.495 7.499s3.359 7.496 7.499 7.495l44.525-.011c4.141-.001 7.496-3.358 7.495-7.499s-3.358-7.496-7.499-7.495z"/></g></g></svg>