<svg id="Layer_1" enable-background="new 0 0 512 512" height="512" viewBox="0 0 512 512" width="512" xmlns="http://www.w3.org/2000/svg"><g><path d="m356.239 10.875 13.08 45.963 46.713 13.644-46.713 13.644-13.08 48.389-13.081-48.389-46.713-13.644 46.713-13.644z" fill="#fed402"/><g fill="#fee45a"><path d="m59.793.023 13.081 45.963 46.713 13.644-46.713 13.644-13.081 48.389-13.08-48.389-46.713-13.644 46.713-13.644z"/><path d="m222.664 116.463 13.08 45.963 46.713 13.644-46.713 13.644-13.08 48.389-13.081-48.389-46.713-13.644 46.713-13.644z"/><path d="m59.793 256.827 13.081 45.963 46.713 13.644-46.713 13.644-13.081 48.39-13.08-48.39-46.713-13.644 46.713-13.644z"/></g><path d="m452.207 390.337 13.08 45.963 46.713 13.644-46.713 13.644-13.08 48.389-13.081-48.389-46.713-13.644 46.713-13.644z" fill="#fed402"/><g fill="#dff6fd"><path d="m405.85 403.97-245.382-85.454c-4.031-1.402-8.434.725-9.838 4.756-1.403 4.03.726 8.435 4.756 9.838l245.382 85.454c.842.293 1.698.432 2.541.432 3.196 0 6.186-1.999 7.297-5.187 1.402-4.031-.727-8.436-4.756-9.839z"/><path d="m59.793 150.269c-4.267 0-7.726 3.459-7.726 7.726v60.005c0 4.268 3.459 7.726 7.726 7.726s7.726-3.459 7.726-7.726v-60.005c.001-4.268-3.459-7.726-7.726-7.726z"/><path d="m175.977 143.356c2.711 0 5.342-1.429 6.756-3.965 2.078-3.727.741-8.433-2.986-10.511l-68.297-38.08c-3.727-2.077-8.432-.742-10.511 2.986-2.078 3.727-.741 8.433 2.986 10.511l68.297 38.08c1.191.664 2.482.979 3.755.979z"/><path d="m267.35 141.701c1.271 0 2.56-.314 3.749-.976l42.748-23.782c3.729-2.074 5.07-6.779 2.996-10.508-2.075-3.728-6.781-5.07-10.508-2.995l-42.748 23.782c-3.729 2.074-5.07 6.779-2.996 10.508 1.413 2.54 4.045 3.971 6.759 3.971z"/></g></g></svg>