<svg id="Layer_1" enable-background="new 0 0 100 100" viewBox="0 0 100 100" xmlns="http://www.w3.org/2000/svg"><g clip-rule="evenodd" fill="#fb2b3a" fill-rule="evenodd"><path d="m70.356842 22.8619919v-9.0520992c0-1.8004808.7147446-3.5263071 1.988205-4.7974844l.6016769-.6039219c-6.8038025-3.7637964-14.627697-5.9080675-22.9469337-5.9080675-26.2153511 0-47.4997902 21.2844391-47.4997902 47.4997902s21.2844391 47.4997909 47.4997902 47.4997909 47.4997902-21.2844391 47.4997902-47.4997902c0-8.3214798-2.1442719-16.1454086-5.9080658-22.9469337l-.60392.6016788c-1.2711792 1.2734547-2.9970093 1.9882011-4.7974854 1.9882011h-9.0521011c4.2636566 5.672823 6.7902069 12.7231579 6.7902069 20.3570538 0 18.7262077-15.202179 33.9284248-33.9284248 33.9284248s-33.928421-15.2022171-33.928421-33.9284248c0-18.726244 15.202179-33.928421 33.928421-33.928421 7.6338959-.0000019 14.6842308 2.5265446 20.3570518 6.7902031z"/><path d="m69.126358 27.6730404c-5.1412735-4.4106884-11.8251762-7.0774632-19.1265678-7.0774632-16.2291031 0-29.4046307 13.1755638-29.4046307 29.4046326s13.1755276 29.4046288 29.4046307 29.4046288 29.4046364-13.17556 29.4046364-29.4046288c0-7.3013916-2.6667786-13.9853287-7.0774689-19.1265678l-9.6492577 9.6469459c1.9814339 2.6441689 3.1553535 5.9261513 3.1553535 9.4796219 0 8.7377129-7.0955467 15.8332634-15.8332634 15.8332634s-15.8332634-7.0955505-15.8332634-15.8332634 7.0955505-15.8332634 15.8332634-15.8332634c3.5534363 0 6.835453 1.1739502 9.4795876 3.1553192z"/><path d="m56.2358437 40.5658684c-1.7891617-1.1852722-3.9311867-1.8751335-6.2360535-1.8751335-6.2428169 0-11.3094749 5.0666237-11.3094749 11.3094749s5.066658 11.3094749 11.3094749 11.3094749 11.3094749-5.0666237 11.3094749-11.3094749c0-2.3049011-.6898613-4.4468918-1.8750992-6.2360191l-7.8352127 7.8351784c-.8821373.882103-2.316185.882103-3.1983223 0-.8821373-.8821716-.8821373-2.3161507 0-3.1983223z"/><path d="m96.8368454 15.4090538-9.0475769 9.0475788c-.422966.4252453-.9997635.6627331-1.5991592.6627331h-9.0475845c-1.2485657 0-2.2618942-1.0133247-2.2618942-2.2618942v-9.0475788c0-.5994015.2374954-1.1761951.662735-1.5991621l9.0475769-9.0475788c.6468964-.6468916 1.6195297-.8414114 2.4654617-.4908204.843689.3505909 1.3955994 1.1761606 1.3955994 2.0899813v4.5260677c0 1.2485361 1.0133209 2.2596169 2.2618942 2.2596169h4.5237885c.9138184 0 1.7393875.5519094 2.0899811 1.3955994.3505934.8459321.1560744 1.8185655-.490822 2.4654571z"/></g></svg>