<svg height="512" viewBox="0 0 512 512" width="512" xmlns="http://www.w3.org/2000/svg"><g><g><g><path d="m184 328h304v64h-304z" fill="#d80027"/><path d="m184 104h304v224h-304z" fill="#ffda44"/><path d="m184 168v224h-160v-112l50.29-88 13.71-24z" fill="#d8d7da"/><circle cx="112" cy="392" fill="#2d2d30" r="40"/><circle cx="400" cy="392" fill="#2d2d30" r="40"/><circle cx="112" cy="392" fill="#d8d7da" r="16"/><circle cx="400" cy="392" fill="#d8d7da" r="16"/><path d="m144 192v88h-120l50.29-88z" fill="#83d8f4"/><path d="m24 304h24a16 16 0 0 1 16 16 16 16 0 0 1 -16 16h-24a0 0 0 0 1 0 0v-32a0 0 0 0 1 0 0z" fill="#ffda44"/></g><circle cx="336" cy="168" fill="#e0e0e2" r="96"/><g fill="#d8d7da"><path d="m304 144h24v24h-24v24h24"/><path d="m352 144v24h24"/></g></g><g><path d="m112 416a24 24 0 1 0 -24-24 24.027 24.027 0 0 0 24 24zm0-32a8 8 0 1 1 -8 8 8.009 8.009 0 0 1 8-8z"/><path d="m400 368a24 24 0 1 0 24 24 24.027 24.027 0 0 0 -24-24zm0 32a8 8 0 1 1 8-8 8.009 8.009 0 0 1 -8 8z"/><path d="m488 96h-77.03a103.82 103.82 0 0 0 -150.96 1.08 8.016 8.016 0 0 0 -4.01-1.08h-72a8 8 0 0 0 -8 8v56h-88a8.019 8.019 0 0 0 -6.95 4.03l-64 112a8.017 8.017 0 0 0 -1.05 3.97v112a8 8 0 0 0 8 8h40.68a48.089 48.089 0 0 0 20.83 32h-68.51a8 8 0 0 0 0 16h447a8 8 0 0 0 0-16h-37.51a48.089 48.089 0 0 0 20.83-32h40.68a8 8 0 0 0 8-8v-288a8 8 0 0 0 -8-8zm-152-16a88 88 0 1 1 -88 88 88.1 88.1 0 0 1 88-88zm-257.07 120h57.07v72h-98.21zm-46.93 112h16a8 8 0 0 1 0 16h-16zm32.68 72h-32.68v-40h16a24 24 0 0 0 0-48h-16v-8h112a8 8 0 0 0 8-8v-88a8 8 0 0 0 -8-8h-55.93l4.57-8h83.36v208h-16.68a47.99 47.99 0 0 0 -94.64 0zm47.32 40a32 32 0 1 1 32-32 32.036 32.036 0 0 1 -32 32zm26.49 8a48.089 48.089 0 0 0 20.83-32h193.36a48.089 48.089 0 0 0 20.83 32zm261.51-8a32 32 0 1 1 32-32 32.036 32.036 0 0 1 -32 32zm80-40h-32.68a47.99 47.99 0 0 0 -94.64 0h-160.68v-48h288zm0-64h-288v-208h56.4a104 104 0 1 0 175.2 0h56.4z"/><path d="m496 432h-8a8 8 0 0 0 0 16h8a8 8 0 0 0 0-16z"/><path d="m304 200h24a8 8 0 0 0 0-16h-16v-8h16a8 8 0 0 0 8-8v-24a8 8 0 0 0 -8-8h-24a8 8 0 0 0 0 16h16v8h-16a8 8 0 0 0 -8 8v24a8 8 0 0 0 8 8z"/><path d="m352 176h16v16a8 8 0 0 0 16 0v-48a8 8 0 0 0 -16 0v16h-8v-16a8 8 0 0 0 -16 0v24a8 8 0 0 0 8 8z"/></g></g></svg>