<svg id="Layer_1" enable-background="new 0 0 512 512" viewBox="0 0 512 512" xmlns="http://www.w3.org/2000/svg"><path clip-rule="evenodd" d="m256 511.44c140.724 0 255.5-114.655 255.5-255.379s-114.776-255.501-255.5-255.501-255.5 114.776-255.5 255.5 114.776 255.38 255.5 255.38z" fill="#ffb933" fill-rule="evenodd"/><path d="m390.112 365.087c.673 1.681.396 3.54-.752 4.945l-.415.514-.653.811-.673.811-.672.791-.692.811-.672.791-.692.771-.692.791-.712.791-.673.732c-1.285 1.404-3.224 1.919-5.024 1.365-3.442-1.068-4.589-5.301-2.176-7.951l.633-.692.653-.732.653-.752.653-.752.653-.732.633-.752.633-.752.633-.771.633-.752.415-.514c2.352-2.867 6.881-2.194 8.306 1.228zm22.409-53.878c-1.563.435-2.789 1.582-3.323 3.105l-.297.89-.316.91-.336.91-.336.91-.336.91-.356.91-.336.91-.356.91-.356.91-.317.732c-1.325 3.303 1.147 6.844 4.727 6.725 1.918-.079 3.58-1.246 4.312-3.026l.336-.771.376-.969.376-.949.376-.969.356-.969.356-.949.356-.969.356-.969.336-.969.317-.89c1.265-3.722-2.117-7.362-5.915-6.333zm15.23-51.624-.02-1.365c-.079-3.857-4.371-6.112-7.595-3.976-1.404.949-2.195 2.472-2.176 4.154l.02 1.305.02.989v.969.989l-.02.969-.02.989-.02.969-.02.989-.04 1.305c-.138 3.382 3.086 5.855 6.329 4.866 1.978-.633 3.343-2.374 3.422-4.45l.059-1.424.02-1.048.02-1.029.02-1.048.02-1.029v-1.048-1.029zm-20.392-55.499.356.949.356.969.356.949.336.969.336.949.336.969.316.969.336 1.009c1.207 3.718 6.033 4.589 8.485 1.543 1.009-1.305 1.305-2.947.811-4.51l-.356-1.127-.356-1.029-.336-1.009-.356-1.028-.376-1.009-.376-1.029-.376-1.009-.376-1.009-.475-1.246c-1.305-3.343-5.657-4.173-8.109-1.582-1.305 1.385-1.681 3.362-.989 5.123zm-16.694-48.914-.672-.851-.673-.831-.673-.831-.673-.831-.692-.811-.692-.811-.692-.811-.692-.811-.435-.475c-1.384-1.582-3.58-2.097-5.538-1.286-3.086 1.286-4.015 5.182-1.8 7.714l.415.494.653.752.653.752.653.771.653.771.633.771.633.791.653.791.613.791.494.633c1.582 1.998 4.45 2.472 6.586 1.048 2.354-1.582 2.868-4.826 1.127-7.061zm-57.537-35.82 1.127.613.87.475.851.475.831.494.85.475.851.494.831.494.831.514 1.147.712c1.8 1.088 4.035.949 5.677-.356 2.591-2.136 2.354-6.151-.495-7.951l-1.246-.752-.89-.534-.89-.534-.89-.514-.91-.534-.89-.514-.91-.494-.89-.514-1.187-.633c-1.76-.949-3.857-.752-5.419.494-2.69 2.216-2.314 6.409.751 8.09zm-168.537 4.589c1.642 1.345 3.896 1.523 5.716.396l1.029-.633.89-.534.89-.534.89-.534.89-.514.91-.514.91-.514.91-.514.87-.475c3.481-1.919 3.382-6.923-.178-8.683-1.444-.692-3.086-.673-4.49.099l-.93.514-.969.534-.949.534-.969.554-.949.554-.949.554-.93.574-.93.554-1.108.672c-2.828 1.798-3.105 5.754-.554 7.91zm-36.373 38.253.534-.692.613-.771.633-.771.613-.752.633-.771.633-.752.633-.752.633-.752.653-.752.475-.554c2.611-2.987.791-7.654-3.165-8.09-1.582-.158-3.105.435-4.173 1.642l-.514.593-.692.791-.673.791-.672.811-.673.791-.653.811-.672.811-.653.811-.653.831-.534.692c-2.275 2.908-.673 7.14 2.947 7.833 1.799.317 3.579-.356 4.727-1.799zm-29.906 53.304c1.661-.415 2.947-1.622 3.481-3.244l.376-1.127.297-.91.316-.93.317-.91.317-.93.336-.91.336-.91.336-.91.336-.91.198-.494c1.068-2.769-.534-5.835-3.402-6.527-2.374-.574-4.826.712-5.696 2.967l-.218.554-.356.969-.376.969-.356.969-.336.969-.336.969-.336.969-.336.969-.336.989-.376 1.167c-1.168 3.621 2.095 7.142 5.814 6.252zm-4.213 52.296-.02-.989-.04-.969-.02-.989v-.989l-.019-.969v-.989-.969l.02-.989v-1.068c.079-3.837-4.035-6.27-7.358-4.332-1.444.87-2.354 2.393-2.393 4.094l-.02 1.187-.02 1.048v1.028 1.048l.02 1.029.02 1.048.02 1.048.02 1.029.04 1.048.02.554c.138 3.896 4.589 6.052 7.753 3.758 1.325-.969 2.057-2.472 1.998-4.114zm11.67 54.55-.376-.949-.376-.949-.376-.969-.356-.949-.356-.969-.356-.949-.336-.969-.317-.91c-.752-2.077-2.749-3.402-4.965-3.264-3.204.237-5.32 3.422-4.272 6.468l.336.969.376 1.029.356 1.009.376 1.009.396 1.028.396 1.009.396 1.009.396 1.009.554 1.325c1.463 3.56 6.29 4.094 8.505.93.969-1.385 1.147-3.086.514-4.648zm30.38 48.439-.672-.732-.673-.752-.653-.752-.653-.771-.673-.752-.633-.771-.653-.771-.633-.771-.415-.514c-1.147-1.385-2.907-2.037-4.668-1.721-3.659.673-5.261 4.984-2.927 7.872l.455.554.673.831.692.811.692.811.692.811.692.811.712.791.692.791.712.791.554.593c2.611 2.848 7.298 1.721 8.327-1.998.435-1.642.02-3.303-1.108-4.569zm45.531 34.93-.514-.277-.87-.455-.85-.455-.851-.455-.87-.475-.85-.475-.851-.475-.851-.475-.831-.494-.949-.554c-3.244-1.938-7.378.376-7.397 4.154 0 1.741.87 3.323 2.374 4.233l1.048.613.89.514.91.514.89.514.91.494.91.495.91.495.91.475.91.475.514.277c3.699 1.899 7.912-1.345 7.022-5.419-.318-1.405-1.228-2.572-2.514-3.244zm54.056 16.772-1.048-.138-.969-.119-.969-.138-.949-.158-.969-.138-.969-.158-.949-.158-.969-.158-.949-.178-.613-.119c-3.936-.732-7.022 3.283-5.321 6.883.672 1.424 1.958 2.413 3.501 2.71l.673.139 1.009.178 1.028.178 1.009.158 1.029.178 1.009.158 1.028.138 1.029.158 1.009.139 1.127.138c1.701.218 3.323-.455 4.411-1.78 2.39-3.007.61-7.398-3.188-7.913zm56.549-2.808-.85.178-.969.218-.969.218-.989.198-.969.198-.989.198-.969.178-.989.178-.969.178-.653.119c-3.58.613-5.281 4.747-3.125 7.694 1.088 1.503 2.908 2.235 4.727 1.938l.712-.119 1.048-.178 1.029-.198 1.048-.198 1.028-.198 1.048-.218 1.028-.218 1.029-.218 1.048-.237.831-.178c3.758-.87 5.103-5.439 2.413-8.208-1.207-1.187-2.888-1.701-4.549-1.325zm51.247-19.028c-1.483-.673-3.145-.593-4.549.237l-.989.574-.89.534-.91.514-.91.514-.91.494-.91.514-.93.495-.91.475-.93.494c-3.085 1.622-3.56 5.835-.89 8.07 1.523 1.286 3.619 1.503 5.38.593l.989-.514.989-.514.969-.534.969-.534.969-.534.949-.534.969-.554.949-.554 1.028-.613c3.385-2.016 3.128-6.961-.432-8.623zm-142.585-236.131v-63.664l55.046-21.072 55.039 21.072v63.664c-7.459 25.838-25.482 43.498-55.039 53.937-29.55-10.438-47.566-28.099-55.046-53.937zm22.272-15.42c0 18.072 14.702 32.774 32.774 32.774s32.774-14.702 32.774-32.774c0-18.079-14.702-32.795-32.774-32.795s-32.774 14.716-32.774 32.795zm22.059 17.887c.927 1.03 2.247 1.617 3.631 1.617h.035c1.397-.01 2.722-.617 3.642-1.669l24.308-27.789c1.776-2.031 1.57-5.117-.461-6.894-2.031-1.776-5.117-1.57-6.894.461l-20.684 23.646-7.927-8.805c-1.806-2.005-4.895-2.168-6.9-.362-2.005 1.805-2.167 4.895-.362 6.9zm113.746 84.223-28.106 8.017 21.016 73.739.181.649.984 3.44 28.106-8.017zm-35.041 19.335c-9.615-.726-35.823-3.74-47.594-15.511-6.873-6.873-20.591-5.156-26.173-4.096-5.568 1.047-9.894 3.524-13.627 7.808l-27.254 31.246c-3.419 3.928-3.007 9.915.914 13.348 1.898 1.654 4.333 2.47 6.866 2.296s4.842-1.312 6.489-3.21l16.028-18.379c.593-.677 1.361-1.179 2.219-1.451 12.797-4.019 23.082-2.268 30.576 5.205l52.06 45.396 16.628-2.54zm-142.902-22.412-28.106-8.024-22.182 77.828 28.085 8.003 20.849-73.055zm138.743 93.96c-.021-.014-.035-.028-.056-.042l-53.895-46.994c-.091-.084-.181-.167-.265-.251-2.945-2.979-8.15-6.489-19.544-3.272l-15.093 17.311c-3.363 3.866-8.045 6.189-13.188 6.538-5.143.356-10.104-1.312-13.962-4.689-7.975-6.964-8.806-19.133-1.856-27.115l20.842-23.898c-3.677-1.57-7.647-2.226-12.001-1.982l-22.656 1.27-18.33 64.264c4.975 5.003 9.517 10.355 13.927 15.553 11.973 14.13 23.277 27.478 42.675 33.932 6.873 2.282 9.525 2.351 11.339.286 2.435-2.798 2.177-7.054-.551-9.552l-6.601-5.757c-2.037-1.772-2.247-4.863-.474-6.894 1.772-2.031 4.863-2.247 6.894-.475l6.489 5.659c.056.056.119.105.174.16l12.86 11.213c1.375 1.2 3.133 1.786 4.968 1.668 1.835-.126 3.503-.949 4.689-2.317 1.207-1.382 1.793-3.14 1.668-4.968-.119-1.828-.942-3.489-2.296-4.682l-.07-.063-24.931-21.735c-2.037-1.772-2.247-4.856-.474-6.887 1.772-2.037 4.856-2.247 6.894-.474l25 21.799.007.007 10.927 9.524c1.375 1.2 3.133 1.786 4.975 1.668 1.828-.126 3.496-.949 4.682-2.317 1.2-1.375 1.786-3.14 1.661-4.968-.119-1.828-.935-3.482-2.296-4.668l-.014-.007v-.007l-.063-.056-24.917-21.742c-2.037-1.772-2.247-4.856-.474-6.894 1.779-2.031 4.863-2.24 6.894-.468l24.903 21.728.077.07c.007.007.014.014.021.014l12.378 10.78c2.742 2.393 6.992 2.01 9.894-.893 1.451-1.451 1.612-3.286 1.577-4.249-.07-1.932-.964-3.844-2.408-5.128z" fill="#fff"/></svg>