<svg id="Layer_1" enable-background="new 0 0 64 64" viewBox="0 0 64 64" xmlns="http://www.w3.org/2000/svg"><path d="m38.81816 49.44697v2.93394h-13.63631v-2.93394zm25.18184-41.11524v35.24335c0 2.23301-1.81043 4.04343-4.04343 4.04343h-55.91314c-2.23299.00001-4.04343-1.81042-4.04343-4.04343v-35.24335c0-2.23301 1.81044-4.04343 4.04343-4.04343h55.91313c2.23301-.00001 4.04344 1.81042 4.04344 4.04343zm-3.95131.8231c0-.50468-.41055-.91323-.91523-.91323h-54.26691c-.50669 0-.91523.40854-.91523.91323v33.59715c0 .50467.40854.91323.91523.91323h54.26691c.50468 0 .91523-.40856.91523-.91323zm-54.26891.91523h52.44046v31.76668h-52.44046zm38.39759 10.13963-8.77179 9.34054c-.34647.3685-.32844.94728.04006 1.29174.17624.16623.40253.24833.62684.24833.24232 0 .48665-.09612.66488-.28839l8.7718-9.34054c.34646-.3665.32843-.94528-.04006-1.29174-.36849-.34447-.94728-.32644-1.29173.04006zm-5.70166-4.43998-17.51754 18.65508c-.34646.3685-.32844.94727.04006 1.29174.17624.16621.40054.24833.62484.24833.24432 0 .48665-.09612.6669-.28839l17.51953-18.65507c.34646-.36648.32644-.94526-.04005-1.29173-.36849-.34647-.94728-.32644-1.29374.04004zm-18.04626 12.46476c.17624.16621.40054.24833.62484.24833.24433 0 .48665-.09813.6669-.28839l5.66761-6.03611c.34647-.3685.32844-.94727-.04006-1.29174-.36849-.34646-.94727-.32845-1.29173.04006l-5.66763 6.03611c-.34644.36649-.32842.94527.04007 1.29174zm21.09318 25.97494h-19.04481c-2.10037 0-3.80305 1.70269-3.80305 3.80305v.66309c0 .57225.4639 1.03615 1.03615 1.03615h24.57861c.57225 0 1.03615-.4639 1.03615-1.03615v-.66309c0-2.10037-1.70269-3.80305-3.80305-3.80305z"/></svg>