<svg clip-rule="evenodd" fill-rule="evenodd" height="2048" image-rendering="optimizeQuality" shape-rendering="geometricPrecision" text-rendering="geometricPrecision" viewBox="0 0 2048 2048" width="2048" xmlns="http://www.w3.org/2000/svg" xmlns:xlink="http://www.w3.org/1999/xlink"><clipPath id="id0"><path d="m1024-.0011811c565.538 0 1024 458.463 1024 1024 0 565.538-458.463 1024-1024 1024-565.538 0-1024-458.463-1024-1024 0-565.538 458.463-1024 1024-1024z"/></clipPath><g id="Layer_x0020_1"><path d="m1024-.0011811c565.538 0 1024 458.463 1024 1024 0 565.538-458.463 1024-1024 1024-565.538 0-1024-458.463-1024-1024 0-565.538 458.463-1024 1024-1024z" fill="#bdbdbd"/><g clip-path="url(#id0)"><g id="_380777248" fill="#757575"><g><path id="_3871903121" d="m1464.19 888.941 1135.88 1135.879 3.75 4.32 3.66 4.4 3.56 4.49 3.47 4.57 3.39 4.65 3.28 4.73 3.2 4.81 3.11 4.89 3.01 4.95 2.93 5.03 2.83 5.11 2.74 5.16 2.65 5.24 2.57 5.3 2.47 5.37 2.38 5.42 2.29 5.49 2.21 5.54 2.11 5.6 2.03 5.65-1135.89-1135.884-2.02-5.653-2.12-5.597-2.2-5.543-2.29-5.485-2.38-5.425-2.48-5.364-2.56-5.301-2.65-5.236-2.74-5.169-2.84-5.101-2.92-5.03-3.01-4.958-3.11-4.885-3.2-4.809-3.29-4.731-3.38-4.651-3.47-4.571-3.56-4.487-3.66-4.403z"/><path id="_387190240" d="m1521.82 989.656 1135.89 1135.884.05.13.04.14.05.13.05.14.05.14.05.13.04.14.05.13-1135.88-1135.878-.05-.135-.05-.137-.04-.136-.05-.136-.05-.136-.05-.136-.05-.135z"/><path id="_387216304" d="m1120.4 699.785 1135.88 1135.885.75.9.56 1.04.36 1.15.13 1.23v406.25l-.13 1.23-.36 1.15-.56 1.04-.75.91-.91.75-1.04.56-1.15.36-1.23.13h-639.12l-1.23-.13-1.15-.36-1.04-.56-.9-.75-1135.884-1135.88.907.74 1.04.57 1.147.36 1.231.12h639.119l1.23-.12 1.15-.36 1.04-.57.91-.74.75-.91.56-1.04.36-1.15.13-1.23v-406.25l-.13-1.231-.36-1.147-.56-1.04z"/><path id="_387193312" d="m1522.21 990.742 1135.88 1135.878 1.27 3.74 1.23 3.75 1.19 3.78 1.15 3.79 1.11 3.82 1.08 3.84 1.04 3.85 1 3.88.97 3.89.93 3.91.89 3.92.85 3.95.82 3.96.77 3.97.74 3.99.71 4.01.67 4.02.63 4.03.59 4.05.55 4.06.52 4.07.49 4.08.44 4.09.41 4.1.37 4.12.34 4.12.3 4.13.26 4.15.23 4.14.19 4.16.15 4.16.12 4.17.01.42.02.59.01.74.02.88.03 1 .02 1.1.03 1.18.03 1.24.03 1.28.02 1.31.03 1.32.03 1.3.03 1.27.03 1.22.02 1.16.02 1.07-1135.88-1135.89-.02-1.06-.03-1.16-.02-1.22-.03-1.27-.03-1.31-.03-1.31-.03-1.31-.03-1.28-.02-1.24-.03-1.18-.02-1.1-.03-1-.02-.88-.01-.75-.02-.58-.01-.42-.12-4.17-.15-4.16-.19-4.16-.23-4.15-.26-4.14-.3-4.13-.34-4.12-.37-4.12-.41-4.1-.45-4.09-.48-4.09-.52-4.07-.55-4.05-.6-4.05-.63-4.03-.66-4.02-.71-4.01-.74-3.99-.78-3.97-.81-3.96-.85-3.95-.89-3.92-.93-3.91-.97-3.9-1-3.87-1.04-3.85-1.08-3.84-1.11-3.82-1.15-3.79-1.2-3.78-1.22-3.755z"/><path id="_387193960" d="m1553.38 1258 1135.88 1135.88h-18.77l-1135.88-1135.89z"/><path id="_387193816" d="m1455.28 1198.56 1135.88 1135.88h-4.21l-1135.88-1135.88z"/><path id="_387187960" d="m1451.07 1198.56 1135.88 1135.88h-23.54l-1135.88-1135.88z"/><path id="_387187816" d="m1288.34 1198.56 1135.88 1135.88h-22.82l-1135.88-1135.88z"/><path id="_387188464" d="m1534.61 1257.99 1135.88 1135.89h-34.43l-.61-.02-.61-.04-.59-.08-.59-.1-.57-.13-.57-.16-.56-.18-.54-.21-1135.88-1135.88.54.21.56.18.56.16.58.13.59.1.59.08.61.04.61.02z"/><path id="_387188320" d="m1265.52 1198.56 1135.88 1135.88h-4.2l-1135.88-1135.88z"/><path id="_387188968" d="m1261.32 1198.56 1135.88 1135.88-.84 1.52-.81 1.52-.79 1.55-.76 1.55-.75 1.57-.71 1.59-.7 1.59-.67 1.61-.64 1.62-.62 1.64-.6 1.64-.57 1.66-.54 1.67-.52 1.68-.49 1.7-.47 1.7-.44 1.72-.41 1.72-.39 1.74-.36 1.74-.33 1.76-.31 1.76-.27 1.78-.25 1.78-.22 1.79-.19 1.8-.16 1.81-.14 1.82-.1 1.83-.08 1.83-.04 1.84-.02 1.85.01.39v.38.39l.01.38v.39l.01.39.01.38.01.39-1135.88-1135.89-.01-.38-.01-.39-.01-.38-.01-.39v-.38-.39l-.01-.39v-.38l.02-1.85.04-1.84.08-1.84.1-1.82.13-1.82.17-1.81.19-1.8.22-1.79.25-1.79.27-1.77.31-1.77.33-1.75.36-1.75.39-1.73.41-1.73.44-1.71.46-1.7.5-1.7.52-1.68.54-1.67.57-1.66.6-1.64.62-1.64.64-1.62.67-1.61.69-1.6.72-1.58.74-1.57.77-1.56.79-1.54.81-1.53z"/><path id="_387188824" d="m1247.18 1256.02 1135.88 1135.89.01.13v.13l.01.13v.13.13l.01.13v.13l.01.13-1135.88-1135.89-.01-.13v-.13l-.01-.13v-.13l-.01-.13v-.13l-.01-.13z"/><path id="_387189472" d="m1247.22 1257.06 1135.88 1135.89h-3.53l-1135.88-1135.89z"/><path id="_387189328" d="m1132.65 1205.37 1135.88 1135.88h-28.99l-1135.88-1135.88z"/><path id="_387189976" d="m942.904 1215.41 1135.886 1135.88-147.32 12.2-1135.882-1135.88z"/><path id="_387189832" d="m1103.66 1205.37 1135.88 1135.88v42.53l-.19 1.86-.54 1.74-.85 1.57-1.14 1.37-1.37 1.13-1.57.86-1.73.54-1.86.19h-142.25l-1.86-.19-1.73-.54-1.58-.86-1.37-1.13-1135.878-1135.88 1.371 1.13 1.571.86 1.735.54 1.859.19h142.252l1.85-.19 1.74-.54 1.57-.86 1.37-1.13 1.13-1.37.86-1.57.54-1.74.19-1.86z"/><path id="_387201904" d="m1243.69 1257.06 1135.88 1135.89-111.04-.01-1135.88-1135.88z"/><path id="_387206176" d="m1427.53 1198.56 1135.88 1135.88 1.28 1.52 1.24 1.55 1.21 1.57 1.18 1.6 1.14 1.63 1.11 1.65 1.08 1.68 1.04 1.7 1 1.72.96 1.75.93 1.77.89 1.8.85 1.82.82 1.83.77 1.86.73 1.88.7 1.9.65 1.92.61 1.94.57 1.95.53 1.98.48 1.99.44 2 .4 2.03.35 2.04.3 2.05.26 2.07.22 2.08.17 2.1.12 2.11.07 2.12.02 2.13-.12 4.72-.35 4.66-.58 4.59-.81 4.51-1.02 4.44-1.24 4.35-1.44 4.27-1.64 4.16-1.84 4.06-2.03 3.96-2.2 3.84-2.39 3.72-2.56 3.6-2.72 3.46-2.88 3.33-3.04 3.18-3.19 3.04-3.32 2.88-3.47 2.73-3.59 2.55-3.72 2.39-3.85 2.21-3.95 2.02-4.06 1.84-4.17 1.64-4.26 1.44-4.35 1.24-4.44 1.02-4.52.81-4.59.58-4.65.36-4.72.12-4.72-.12-4.66-.36-4.59-.58-4.52-.81-4.43-1.02-4.36-1.24-4.26-1.44-4.16-1.64-4.07-1.84-3.95-2.02-3.84-2.21-3.72-2.39-3.6-2.55-3.46-2.73-3.33-2.88-3.19-3.04-1135.88-1135.88 3.19 3.04 3.33 2.88 3.46 2.72 3.6 2.56 3.72 2.39 3.84 2.21 3.95 2.02 4.07 1.84 4.16 1.64 4.26 1.44 4.35 1.24 4.44 1.02 4.52.81 4.59.58 4.66.36 4.72.12 4.72-.12 4.65-.36 4.59-.58 4.52-.81 4.44-1.02 4.35-1.24 4.26-1.44 4.17-1.64 4.06-1.84 3.95-2.02 3.84-2.21 3.73-2.39 3.59-2.56 3.47-2.72 3.32-2.88 3.19-3.04 3.04-3.18 2.88-3.33 2.72-3.47 2.56-3.59 2.38-3.72 2.21-3.84 2.03-3.96 1.83-4.06 1.65-4.17 1.44-4.26 1.23-4.35 1.03-4.44.8-4.51.59-4.59.35-4.66.12-4.72-.02-2.14-.07-2.12-.13-2.11-.16-2.09-.22-2.08-.26-2.07-.3-2.06-.36-2.04-.39-2.02-.44-2.01-.49-1.99-.52-1.97-.57-1.95-.61-1.94-.65-1.92-.7-1.9-.73-1.88-.78-1.86-.81-1.84-.85-1.81-.89-1.8-.93-1.77-.96-1.75-1.01-1.72-1.03-1.71-1.08-1.67-1.11-1.66-1.14-1.62-1.18-1.6-1.21-1.58-1.24-1.54z"/><path id="_387206248" d="m1473.01 1257.08 1135.88 1135.88h-3.63l-1135.88-1135.88z"/><path id="_387206680" d="m1495.54 1257.08 1135.88 1135.88h-22.53l-1135.88-1135.88z"/><path id="_387206752" d="m774.387 1229.36 1135.883 1135.89-2.29.19-1135.886-1135.89z"/><path id="_387208816" d="m795.588 1227.61 1135.882 1135.88-.78 1.32-.94 1.2-1.09 1.09-1.21.94-1.34.79-1.45.62-1.55.43-1.63.24-1.65.04-1.61-.18-1.56-.37-1.48-.56-1.39-.72-1.3-.89-1.18-1.03-1135.877-1135.88 1.179 1.03 1.293.88 1.396.73 1.481.55 1.555.38 1.611.17 1.653-.03 1.631-.24 1.547-.44 1.448-.62 1.338-.78 1.217-.95 1.085-1.08.939-1.21z"/><path id="_387211672" d="m772.094 1229.55 1135.886 1135.89-3.67.3-1135.878-1135.88z"/><path id="_387212104" d="m768.432 1229.86 1135.878 1135.88-3.66.3-1135.883-1135.88z"/><path id="_387212176" d="m764.767 1230.16 1135.883 1135.88-17.69 1.47-1135.879-1135.89z"/><path id="_387199000" d="m584.395 1205.37 1135.885 1135.88h-21.18l-1135.884-1135.88z"/><path id="_387199648" d="m563.216 1205.37 1135.884 1135.88h-4.05l-1135.886-1135.88z"/><path id="_387199504" d="m559.164 1205.37 1135.886 1135.88h-4.03l-1135.877-1135.88z"/><path id="_387211744" d="m481.667 1159.79 1135.883 1135.88h-8.42l-1135.881-1135.88z"/><path id="_387214576" d="m514.102 1205.37 1135.878 1135.88-25.1 51.17-1135.88-1135.89z"/><path id="_387215224" d="m555.143 1205.37 1135.877 1135.88h-41.04l-1135.878-1135.88z"/><path id="_387215344" d="m489 1256.53 1135.88 1135.89h-24.5l-1135.877-1135.89z"/><path id="_387194848" d="m747.081 1231.62 1135.879 1135.89.47 1.59.44 1.6.41 1.61.38 1.62.35 1.63.32 1.65.3 1.65.26 1.67.24 1.67.2 1.69.17 1.69.15 1.7.11 1.72.08 1.72.04 1.72.02 1.74-.12 4.72-.35 4.66-.59 4.59-.8 4.51-1.03 4.44-1.23 4.35-1.44 4.27-1.65 4.16-1.83 4.06-2.03 3.96-2.21 3.84-2.38 3.72-2.56 3.6-2.72 3.46-2.89 3.33-3.03 3.18-3.19 3.04-3.33 2.88-3.46 2.73-3.6 2.55-3.72 2.39-3.84 2.21-3.95 2.02-4.07 1.84-4.16 1.64-4.26 1.44-4.35 1.24-4.44 1.02-4.52.81-4.59.58-4.66.36-4.72.12-4.71-.12-4.66-.36-4.59-.58-4.52-.81-4.44-1.02-4.35-1.24-4.26-1.44-4.17-1.64-4.06-1.84-3.95-2.02-3.84-2.21-3.72-2.39-3.6-2.55-3.46-2.73-3.33-2.88-1135.884-1135.88 3.328 2.88 3.464 2.72 3.597 2.56 3.72 2.39 3.841 2.21 3.955 2.02 4.063 1.84 4.165 1.64 4.262 1.44 4.351 1.24 4.437 1.02 4.517.81 4.591.58 4.657.36 4.72.12 4.719-.12 4.657-.36 4.591-.58 4.517-.81 4.437-1.02 4.352-1.24 4.261-1.44 4.166-1.64 4.063-1.84 3.954-2.02 3.841-2.21 3.72-2.39 3.597-2.56 3.464-2.72 3.328-2.88 3.186-3.04 3.036-3.18 2.884-3.33 2.722-3.47 2.557-3.59 2.386-3.72 2.209-3.84 2.024-3.96 1.838-4.06 1.642-4.17 1.442-4.26 1.235-4.35 1.024-4.44.807-4.51.583-4.59.355-4.66.119-4.72-.017-1.74-.047-1.73-.08-1.72-.111-1.71-.143-1.7-.173-1.69-.204-1.69-.234-1.67-.264-1.67-.294-1.65-.323-1.65-.353-1.63-.382-1.62-.409-1.62-.439-1.6z"/><path id="_387192448" d="m1575.01 1144.51 1135.88 1135.88 1.98 2.18 1.76 2.36 1.54 2.52 1.3 2.68 1.03 2.81.76 2.93.46 3.03.16 3.12v61.24l-.16 3.12-.46 3.03-.76 2.93-1.03 2.81-1.3 2.67-1.54 2.53-1.76 2.36-1.98 2.17-2.18 1.98-2.36 1.77-2.52 1.54-2.68 1.29-2.81 1.03-2.93.76-3.03.47-3.12.16-1135.88-1135.88 3.12-.16 3.03-.47 2.93-.76 2.81-1.03 2.68-1.29 2.52-1.54 2.36-1.77 2.18-1.98 1.98-2.18 1.76-2.36 1.54-2.52 1.29-2.68 1.04-2.81.76-2.92.46-3.04.16-3.11v-61.25l-.16-3.12-.46-3.03-.76-2.93-1.04-2.81-1.29-2.67-1.54-2.53-1.76-2.36z"/></g><path id="_380777752" d="m1152.25 806.402h117.582l6.65552.13937c53.113 1.06536 97.8957 14.7248 134.725 37.6016.230315.135827.457087.276378.682678.418111 52.5248 32.8642 88.7989 84.5221 109.929 145.095.133465.360236.259843.722835.38504 1.08662 13.7114 39.6992 20.9445 83.1875 22.0122 127.699.0413386 1.71851.26811 11.6433.379134 17.0728h8.77914c16.8425 0 30.6201 13.7776 30.6201 30.6201v61.2414c0 16.8414-13.7776 30.6201-30.6201 30.6201l-18.7725-.0011811-34.4303.0011811c-1.63937 0-3.20551-.325985-4.63819-.917717l-22.5272-.0011811h-3.63425c.00472441-.12874.00944883-.257481.0212599-.386221.0425197-1.25079.0637796-2.50276.0637796-3.75355 0-19.7528-5.15197-38.302-14.1851-54.378h-4.20591-23.5418c13.7894 16.0488 22.1221 36.9213 22.1221 59.739 0 50.654-41.0622 91.7174-91.7162 91.7174-50.6528 0-91.7162-41.0634-91.7162-91.7174 0-22.8177 8.33268-43.6902 22.1221-59.739h-22.8189-4.20473c-9.03308 16.076-14.1851 34.6252-14.1851 54.378 0 1.02992.0141732 2.05866.0484252 3.0874.0106299.347244.022441.693308.0354331 1.03937h-3.52323l-111.041-.00826772v-51.6898h-28.9914v42.5363c0 5.09056-4.16339 9.25513-9.25513 9.25513h-142.247c-5.09056 0-9.25394-4.16457-9.25394-9.25513v-32.4922l-147.317 12.1984c-1.86496 3.64725-5.53347 6.26575-9.98623 6.63426-4.45276.369685-8.61024-1.60158-11.2146-4.87796l-2.29252.190158-3.6626.303544-3.66496.302362-17.6858 1.46457c2.56181 8.44016 3.93898 17.3953 3.93898 26.6729 0 50.654-41.0634 91.7174-91.7162 91.7174s-91.7162-41.0634-91.7162-91.7174c0-19.715 6.22087-37.9784 16.8071-52.9323h-21.1784-4.05237-4.02048-41.041l-25.102 51.1689h-24.4973l-.504331-95.7213h17.6681v-1.02638h-8.41772v-34.8673h659.403v-297.154c-.943702-14.5961 4.59213-22.715 19.598-21.3638zm-30.0544-102.292v406.25c0 3.36851-2.75551 6.12402-6.12402 6.12402h-639.121c-3.36851 0-6.12402-2.75551-6.12402-6.12402v-406.25c0-3.36851 2.75551-6.12402 6.12402-6.12402h639.121c3.36851 0 6.12402 2.75551 6.12402 6.12402z"/></g></g><path d="m1024-.0011811c565.538 0 1024 458.463 1024 1024 0 565.538-458.463 1024-1024 1024-565.538 0-1024-458.463-1024-1024 0-565.538 458.463-1024 1024-1024z" fill="none"/><path d="m725.171 1219.89 47.7815-3.9567c1.86614-3.64725 5.53465-6.26693 9.98741-6.63544 4.45394-.368504 8.61142 1.60158 11.2158 4.87914l177.947-14.7354 1.43268 13.4339-177.949 14.7354c-1.86496 3.64725-5.53347 6.26575-9.98623 6.63426-4.45276.369685-8.61024-1.60158-11.2146-4.87796l-47.7827 3.9567-1.43268-13.4339z" fill="#212121"/><path d="m481.667 1125.2h759.497v80.1697c-207.114 0-552.383 0-759.497 0z" fill="#424242"/><path d="m473.249 1124.92h675v34.867h-675z" fill="#1b1b1b"/><path d="m1232.23 1124.56h232.205v74h-232.205z" fill="#424242"/><path d="m1276.49 806.541c179.527 3.60236 263.877 151.077 267.734 311.901.0531496 2.21929.416929 18.1358.43937 20.361 24.5386 10.8992 39.2244 22.0807 39.2244 49.3807h-.0755906c-.00236221 36.5622-19.4008 68.9729-59.0245 68.9729v-.0767717l-55.4079-.00354331c.0507874-1.3748.0850394-2.75315.0850394-4.13977 0-61.3949-49.7705-111.165-111.165-111.165-61.3937 0-111.164 49.7705-111.164 111.165 0 1.38189.034252 2.7567.0838583 4.12677l-114.565-.00826772v-429.29c-.943702-14.5973 4.59213-22.715 19.598-21.3638h117.581l6.6567.13937z" fill="#d50000"/><path d="m1500.18 1135.51h53.2028c16.8425 0 30.6201 13.7776 30.6201 30.6201v61.2414c0 16.8414-13.7776 30.6201-30.6201 30.6201h-53.2028c-6.73701 0-12.248-5.51221-12.248-12.2492v-97.9843c0-6.73701 5.51103-12.248 12.248-12.248z" fill="#212121"/><path d="m1500.18 1135.51h34.4303v122.48h-34.4303c-6.73701 0-12.248-5.51103-12.248-12.248v-97.9843c0-6.73701 5.51103-12.248 12.248-12.248z" fill="#1e1e1e"/><rect fill="#add7fa" height="162.188" rx="6.124" width="41.368" x="1164.93" y="844.906"/><path d="m1171.05 841.26h29.1201c2.69055 0 5.13426 1.09843 6.90237 2.86654 1.76929 1.76929 2.8689 4.21181 2.8689 6.90237v149.942c0 2.69055-1.09961 5.13426-2.8689 6.90237-1.76811 1.76811-4.21181 2.86772-6.90237 2.86772h-29.1201c-2.67992 0-5.12008-1.09961-6.88938-2.86772l-.0129921-.0129921c-1.76811-1.76929-2.86772-4.20945-2.86772-6.88938v-149.942c0-2.67992 1.09961-5.1189 2.86772-6.88819l.0129921-.0141732c1.76929-1.76811 4.20945-2.86654 6.88938-2.86654zm29.1201 7.29213h-29.1201c-.683859 0-1.3063.277559-1.75394.722835-.445276.448819-.722835 1.07008-.722835 1.75394v149.942c0 .683859.277559 1.3063.722835 1.75394.447638.445276 1.07008.722835 1.75394.722835h29.1201c.679134 0 1.29921-.281103 1.74803-.728741.448819-.45.729922-1.07008.729922-1.74803v-149.942c0-.676772-.281103-1.29685-.729922-1.74685-.448819-.448819-1.0689-.729922-1.74803-.729922z" fill="#212121" fill-rule="nonzero"/><path d="m1251.51 842.424c1.01102-.0271654 1.85315.770079 1.88032 1.7811.0271654 1.00984-.770079 1.85197-1.77992 1.87914-12.1205.33189-19.7032 1.78465-24.1169 5.19095-4.22244 3.26103-5.64685 8.59843-5.57717 16.8012l1.26142 146.614c.0165354 2.02205-1.82362 5.35512-4.29803 9.83623-4.54961 8.23583-11.4059 20.6492-11.8252 32.9977-.12874 3.77126-.427559 25.037-.323622 47.0823.0602363 12.9284.259843 26.1484.715749 36.287 1.84725 41.1626 23.4437 40.513 60.8705 39.3874l1.15276-.0330709c3.21024-2.57244 6.32126-5.23347 9.4252-7.88623 8.88898-7.59804 17.7295-15.1547 28.2307-20.2264 21.5185-10.3913 45.0839-15.3567 68.2949-12.274 20.7071 2.75079 41.1036 11.8996 59.4839 29.2996l.00354331.00354331.00354331-.00354331c2.84292 2.69055 5.2689 5.27008 7.43741 7.57442 5.03504 5.3504 8.5878 9.1252 12.3449 8.95394 2.53701-.115748 5.17914-.194882 7.74213-.270473 10.4728-.308268 19.5012-.576378 19.5685-2.76142v-.00708662c.88819-28.4008-.134646-61.8567-3.18898-96.8398-2.83701-32.5004-7.4315-66.2871-13.8768-98.517-.197244-.994489.447638-1.96299 1.44213-2.16024.994489-.197244 1.96299.447638 2.16024 1.44213 6.47245 32.3705 11.0858 66.293 13.9347 98.9198 3.06142 35.0599 4.08426 68.667 3.18898 97.2698-.185433 5.63622-10.8059 5.95158-23.1284 6.31418-2.48268.0732284-5.04331.15-7.68544.270473-5.43071.248032-9.46064-4.03347-15.1713-10.1032-2.13189-2.26536-4.51654-4.8-7.29449-7.43032l.00354331-.00354331c-17.7732-16.8248-37.4681-25.6666-57.4418-28.3193-22.4622-2.98347-45.3189 1.84606-66.2292 11.9433-10.0736 4.86496-18.7323 12.2669-27.4406 19.7103-3.30473 2.8252-6.62008 5.65867-9.99686 8.34686l-.00236221-.00236221c-.298819.238583-.675591.386221-1.08898.396851l-1.77165.0531496c-39.7087 1.1941-62.6221 1.88268-64.6312-42.8906-.454725-10.1256-.654331-23.4095-.715749-36.4299-.103937-22.1209.194882-43.4363.323622-47.2111.451181-13.2496 7.55552-26.1142 12.2693-34.6477 2.21575-4.01221 3.86221-6.99567 3.85394-8.04331l-1.26142-146.614c-.080315-9.40513 1.70906-15.6437 6.99804-19.728 5.09764-3.93544 13.3311-5.59843 26.2559-5.95276z" fill="#8c0303" fill-rule="nonzero"/><path d="m1237.24 962.488v-97.9855c0-12.202.219685-19.5969 22.6784-19.5969h9.48544c49.2059 0 87.5977 10.585 117.912 29.9599 38.2288 24.4335 57.417 58.2024 73.0808 95.7024 4.22835 10.1209 7.88859 21.4488 4.5 27.6142-3.73819 6.80197-14.0941 10.0795-32.2347 9.20788h-172.743c-17.3327.0236221-24.2823-3.14173-22.6784-44.902z" fill="#add7fa"/><path d="m1233.59 962.488v-97.9855c0-6.83977.0720473-12.3449 3.78662-16.7244 3.57166-4.21181 10.0819-6.51851 22.539-6.51851h9.48426c24.8847 0 47.0906 2.69055 66.952 7.84253 19.911 5.16378 37.4351 12.8091 52.9122 22.7008 19.5543 12.4973 34.2307 27.3721 46.0146 43.9063 11.726 16.4551 20.5559 34.5 28.4764 53.4626 2.18268 5.22284 4.22599 10.7941 5.30552 15.9461 1.18465 5.65512 1.19173 10.8697-.976772 14.8158-2.34331 4.26615-6.58465 7.37363-12.8799 9.21969-5.6752 1.66299-13.1433 2.31496-22.5461 1.87559v.00708662h-172.742v-.0153543c-9.89765.0129921-16.8886-.972048-21.5315-8.50394-4.09725-6.64725-5.60315-18.4559-4.78347-40.0288h-.0106299zm7.29331-97.9855v97.9855l-.0141732.12874c-.772442 20.1036.396851 30.7276 3.69685 36.0827 2.7626 4.48229 7.91694 5.06811 15.3496 5.05867v-.0153543h172.742l.17126.0153543c8.65749.414567 15.3851-.137008 20.3232-1.58386 4.34646-1.27441 7.15749-3.20788 8.55119-5.74371 1.22008-2.21929 1.09016-5.75434.236221-9.8315-.959056-4.58268-2.86181-9.74056-4.90748-14.6351-7.74213-18.5362-16.3406-36.1288-27.6792-52.0406-11.2819-15.8315-25.3181-30.0614-43.9926-41.9965-14.8347-9.4819-31.6666-16.8177-50.8311-21.789-19.2106-4.98189-40.8083-7.58623-65.1296-7.58623h-9.48426c-10.0004 0-14.8335 1.39134-16.9843 3.92717-2.00788 2.36811-2.04803 6.66142-2.04803 12.0236z" fill="#212121" fill-rule="nonzero"/><path d="m1450.59 982.837 18.5209 27.0839c4.21654 18.913-28.1162 23.3209-32.7768 11.2075l4.6878-19.9193 9.56812-18.3721z" fill="#1b1b1b"/><path d="m1424.15 1004.34 7.19646-54.8351c36.6744 21.2575 14.4437 63.5398-7.19646 54.8351z" fill="#c30303"/><path d="m1248.09 1060.53h45.2115c2.36693 0 4.30394-1.93701 4.30394-4.30512v-4.3063h-53.8205v4.3063c0 2.36811 1.93701 4.30512 4.30512 4.30512z" fill="#540000"/><path d="m1249.76 1037.57h41.863c4.53898 0 8.25237 3.71339 8.25237 8.25237v8.25473h-58.3678v-8.25473c0-4.53898 3.71339-8.25237 8.25237-8.25237z" fill="#8c0303"/><path d="m1357.94 1350.02c-50.6528 0-91.7162-41.0634-91.7162-91.7162 0-50.654 41.0634-91.7174 91.7162-91.7174s91.7162 41.0634 91.7162 91.7174c0 50.6528-41.0634 91.7162-91.7162 91.7162zm0-45.4524c-25.5496 0-46.2638-20.7142-46.2638-46.2638 0-25.5508 20.7142-46.265 46.2638-46.265 25.5508 0 46.2638 20.7142 46.2638 46.265 0 25.5496-20.713 46.2638-46.2638 46.2638z" fill="#1b1b1b"/><ellipse cx="1357.94" cy="1258.3" fill="#424242" rx="47.7" ry="47.7"/><ellipse cx="1357.94" cy="1258.3" fill="#595959" rx="37.286" ry="37.286"/><path d="m1247.18 1256.02c-.0283465-1.02874-.0425197-2.05748-.0425197-3.0874 0-61.3949 49.7705-111.165 111.164-111.165 61.3949 0 111.165 49.7705 111.165 111.165 0 1.25079-.0212599 2.50276-.0637796 3.75355" fill="none"/><path d="m1250.81 1255.94c.046063 2.00433-1.54252 3.66969-3.54685 3.71693-2.00551.046063-3.67087-1.54252-3.71693-3.54685-.0129921-.487796-.0248032-1.00984-.0318898-1.58504-.0165354-1.24134-.0248032-1.40315-.0248032-1.5874 0-31.7032 12.8516-60.4063 33.6272-81.1831 20.778-20.7768 49.48-33.6284 81.1831-33.6284 31.7032 0 60.4075 12.8516 81.1831 33.6284 20.7768 20.7768 33.6284 49.48 33.6284 81.1831l-.0307087 1.94055c-.0106299.702756-.0283465 1.34173-.0472441 1.92638-.0614174 2.00551-1.73977 3.58111-3.74528 3.51851-2.00433-.0614174-3.57992-1.74095-3.51733-3.74528.0212599-.656693.0377953-1.27087.0472441-1.81299v-1.82717c0-29.6918-12.0331-56.5713-31.4906-76.0276-19.454-19.4551-46.3359-31.4906-76.0276-31.4906-29.6906 0-56.5713 12.0354-76.0276 31.4906-19.4551 19.4551-31.4906 46.337-31.4906 76.0276 0 1.21417-.00708662 1.28858-.00354331 1.50118.00590552.451181.0177165.961418.0318898 1.50118z" fill="#212121" fill-rule="nonzero"/><circle cx="1357.94" cy="1258.3" fill="#212121" r="18.036" stroke="#373435" stroke-width="2.083"/><path d="m659.304 1350.02c-50.6528 0-91.7162-41.0634-91.7162-91.7162 0-50.654 41.0634-91.7174 91.7162-91.7174s91.7162 41.0634 91.7162 91.7174c0 50.6528-41.0634 91.7162-91.7162 91.7162zm0-45.4524c-25.5508 0-46.2638-20.7142-46.2638-46.2638 0-25.5508 20.713-46.265 46.2638-46.265s46.2638 20.7142 46.2638 46.265c0 25.5496-20.713 46.2638-46.2638 46.2638z" fill="#1b1b1b"/><ellipse cx="659.304" cy="1258.3" fill="#424242" rx="47.7" ry="47.7"/><ellipse cx="659.304" cy="1258.3" fill="#595959" rx="37.286" ry="37.286"/><path d="m548.543 1256.02c-.0283465-1.02874-.0425197-2.05748-.0425197-3.0874 0-61.3949 49.7705-111.165 111.164-111.165 61.3949 0 111.165 49.7705 111.165 111.165 0 1.25079-.0212599 2.50276-.0637796 3.75355" fill="none"/><path d="m552.175 1255.92c.0543308 2.00551-1.52717 3.67677-3.5315 3.73229-2.00551.0543308-3.67677-1.52717-3.73229-3.53268-.0129921-.478347-.0236221-1.01811-.0318898-1.59921l-.0259843-1.5874c0-31.7032 12.8528-60.4063 33.6284-81.1831 20.7768-20.7768 49.48-33.6284 81.1831-33.6284 63.4075 0 114.812 51.4028 114.812 114.812l-.0307087 1.92756c-.011811.698032-.0271654 1.35-.0472441 1.93937-.0625985 2.00551-1.74095 3.58111-3.74528 3.51851-2.00551-.0614174-3.57992-1.74095-3.51851-3.74528.022441-.662599.0389764-1.27087.0472441-1.82599l.00236221-1.81417c0-59.3811-48.1394-107.518-107.519-107.518-29.6906 0-56.5725 12.0354-76.0276 31.4906-19.4551 19.4551-31.4906 46.337-31.4906 76.0276l-.00354331 1.50118c.00472441.444095.0165354.937796.0318898 1.48583z" fill="#212121" fill-rule="nonzero"/><circle cx="659.304" cy="1258.3" fill="#212121" r="18.036" stroke="#373435" stroke-width="2.083"/><path d="m463.999 1160.81h71.958l-46.957 95.72h-24.497z" fill="#424242"/><path d="m952.159 1178.26h111.887v-6.1252h17.7024v6.1252h12.6567c5.09174 0 9.25513 4.16339 9.25513 9.25394v60.3851c0 5.09056-4.16339 9.25513-9.25513 9.25513h-142.246c-5.09174 0-9.25513-4.16457-9.25513-9.25513v-60.3851c0-5.09056 4.16339-9.25394 9.25513-9.25394z" fill="#bdbdbd"/><path d="m1062.56 1166.01h19.4256c2.23701 0 4.06654 1.82953 4.06654 4.06654v4.06772h-27.5587v-4.06772c0-2.23701 1.82953-4.06654 4.06654-4.06654z" fill="#212121"/><rect fill="#01579b" height="418.498" rx="6.124" width="651.369" x="470.827" y="697.987"/><path d="m518.356 749.498h556.311v315.475h-556.311z" fill="#004d87"/><g fill="#045da4"><path d="m548.79 733.268h15.498v347.933h-15.498z"/><path d="m505.159 733.268h15.498v347.933h-15.498z"/><path d="m592.421 733.268h15.498v347.933h-15.498z"/><path d="m636.052 733.268h15.498v347.933h-15.498z"/><path d="m679.683 733.268h15.498v347.933h-15.498z"/><path d="m723.315 733.268h15.498v347.933h-15.498z"/><path d="m766.946 733.268h15.498v347.933h-15.498z"/><path d="m810.577 733.268h15.498v347.933h-15.498z"/><path d="m854.208 733.268h15.498v347.933h-15.498z"/><path d="m897.84 733.268h15.498v347.933h-15.498z"/><path d="m941.471 733.268h15.498v347.933h-15.498z"/><path d="m1028.73 733.268h15.498v347.933h-15.498z"/><path d="m985.102 733.268h15.498v347.933h-15.498z"/><path d="m1072.36 733.268h15.498v347.933h-15.498z"/></g><rect fill="#01223b" height="9.504" rx="4.364" width="17.511" x="479.897" y="705.532"/><rect fill="#01223b" height="9.504" rx="4.364" width="17.511" x="1095.07" y="705.532"/><path d="m1522.21 990.742c-21.0815-61.0406-57.4748-113.12-110.314-146.182l-1.39134 6.27048s56.7638 43.6252 81.2174 94.702c13.1339 27.4347 16.0878 37.9524 17.165 42.9685.929528 4.32402.79252 4.88741.79252 4.88741 4.27323 5.83819 8.84883 6.32126 12.5303-2.64685z" fill="#add7fa"/><path d="m1411.21 844.143c.455906.283465.905906.574016 1.35945.859843l-1.22835 5.54292c4.90512 4.09961 60.3638 51.0307 81.0627 94.6642 15.6638 33.0201 16.0228 36.1914 16.5331 40.7091.184252 1.64173.390945 3.47008 1.43268 7.13268 1.08543 1.46457 2.17795 2.55591 3.25158 3.19607.97441.582284 1.93465.783071 2.85236.539764.957875-.253937 1.92166-.994489 2.87008-2.2878.858662-1.17047 1.68898-2.77087 2.47795-4.8437.252756.722835.494882 1.45158.742914 2.17795-.641339 1.44095-1.30984 2.62323-1.99725 3.56103-1.16575 1.5874-2.41181 2.51339-3.70748 2.85827-1.33701.354331-2.68465.0897638-4.01575-.705119-1.2815-.764174-2.55118-2.0315-3.77835-3.71103l-.119291-.239764c-1.10433-3.85748-1.32165-5.78386-1.51654-7.513-.493701-4.36654-.840946-7.43386-16.3973-40.2272-21.4902-45.3012-80.8442-94.3028-81.0142-94.4446l-.355512-.295276.100394-.448819 1.44685-6.5256z" fill="#212121"/></g></svg>